<svg width="1440" height="504" viewBox="0 0 1440 504" fill="none" xmlns="http://www.w3.org/2000/svg">
<g opacity="0.5" clip-path="url(#clip0_1166_9647)">
<path d="M0 504L1440 504L1440 -0.00012207L-4.40611e-05 3.81849e-06L0 504Z" fill="white"/>
<path d="M1171.28 155.447C1055.48 150.164 939.465 142.576 824.618 131.773C811.778 130.699 796.823 129.561 783.893 128.665C737.888 125.309 687 122.794 640.98 119.644C572.97 115.36 505.44 107.525 438.038 100.744C384.195 95.4848 329.378 91.4529 275.4 86.8142C221.25 82.1055 167.153 75.5582 114.075 67.3822C61.2601 58.7675 6.69018 49.1262 -37.4923 28.3175C-59.3399 17.9108 -77.3698 4.90483 -96.4873 -7.2985C-76.3273 4.10683 -57.6898 16.7115 -35.2799 26.4555C-20.8424 32.9048 -4.98731 38.1408 11.2801 42.5742C22.9726 45.7195 34.9127 48.5148 46.9877 51.0068C95.5802 60.9188 145.71 67.6062 195.848 73.7382C259.298 81.2935 334.11 91.1402 397.478 96.9408C437.993 100.828 478.935 103.465 519.728 105.91C535.44 106.881 555.12 108.155 570.735 109.27C662.115 115.691 753.638 126.686 845.303 131.642C875.948 133.387 906.66 134.815 937.253 136.878C1015.01 142.324 1093.89 148.377 1171.29 155.442L1171.28 155.447Z" fill="#ECE3D8"/>
<g opacity="0.97">
<path d="M1164.29 150.491C1056.62 145.026 947.805 138.11 841.088 127.377C824.708 125.781 807.24 124.339 790.74 123.009C754.605 120.148 715.8 117.675 679.575 115.281C612.18 111.039 544.98 104.557 478.455 96.5488C426.308 90.4868 370.32 85.2555 317.835 80.4675C271.253 76.2581 223.523 71.2275 177.713 64.4515C151.748 60.7088 124.373 56.3921 98.8651 51.5108C71.2277 46.3542 43.7176 40.1988 17.685 32.4288C10.6576 30.3475 1.80761 27.4401 -4.91993 24.9621L-9.34486 23.3568L-11.5574 22.5541C-12.2924 22.2835 -12.9974 21.9848 -13.7174 21.7001L-22.3274 18.2561C-23.7749 17.6961 -25.1323 17.0522 -26.5424 16.4548C-50.2499 6.15082 -71.5798 -5.96385 -94.2974 -17.0332C-65.0849 -4.42384 -38.2349 10.2528 -7.07985 20.9255C-2.6548 22.4048 1.81517 24.0102 6.30016 25.3355C57.6301 41.1788 114.015 50.0968 169.5 58.4688C198.938 62.6501 229.26 66.7101 258.735 70.6395C291.585 75.1148 325.23 79.6881 358.245 83.5381C390.765 87.3835 425.813 90.8928 458.625 93.5061C494.918 96.3808 533.453 98.7515 569.708 101.626C660.45 108.691 750.36 120.12 841.455 125.51C871.8 127.433 902.228 128.921 932.52 131.133C1009.51 136.915 1087.64 143.169 1164.28 150.491L1164.29 150.491Z" fill="#ECE3D8"/>
</g>
<g opacity="0.95">
<path d="M1157.3 145.53C1079.45 141.442 999.225 135.903 921.705 129.486C881.573 126.01 837.278 120.886 797.115 117.456C730.605 111.506 663.398 108.006 597 101.612C564.023 98.5929 530.43 94.6123 497.685 90.5663C452.078 84.7003 404.73 79.4083 358.838 74.6016C299.22 68.5443 239.063 62.3563 180.615 52.7383C125.445 43.713 69.6378 33.2503 18.8028 16.9029C-8.21217 8.35827 -33.2771 -2.55704 -58.2296 -13.169C-68.9622 -17.7004 -81.0448 -22.535 -92.0923 -26.7771C-83.3323 -23.8324 -74.1597 -20.659 -65.7522 -17.4904C-51.3596 -12.0957 -37.1622 -6.38835 -22.8372 -1.02636C11.4303 12.1383 48.0978 22.4003 86.1153 30.5156C110.963 35.8543 137.663 40.7776 163.05 44.9916C180.293 47.9269 199.53 50.7503 216.69 53.4476C224.348 54.5676 233.603 55.8883 241.178 57.0736C273.585 61.9409 306.788 66.9109 339.3 71.4003C378.315 76.6596 418.778 81.3869 458.318 84.8869C504.668 88.9423 552.008 92.1296 598.23 96.5909C664.38 102.756 731.018 111.048 797.355 116.364C838.988 119.831 880.958 121.903 922.65 124.974C1000.62 131.18 1079.68 137.821 1157.3 145.54L1157.3 145.53Z" fill="#ECE3D8"/>
</g>
<g opacity="0.92">
<path d="M1150.3 140.569C1073.08 136.229 993.51 130.415 916.658 123.643C872.138 119.527 827.85 114.039 783.278 110.091C714.113 103.735 643.935 99.5541 575.115 91.8261C536.025 87.6354 496.238 81.9561 457.388 76.8274C425.048 72.6321 391.718 68.5814 359.19 64.8014C300.27 58.0581 240.653 51.1981 183.143 40.6001C131.708 31.4254 80.7829 20.5334 32.9404 5.46471C15.0829 -0.0792922 -2.49721 -6.40725 -19.6871 -12.6933C-38.9996 -19.8613 -60.6821 -27.6593 -80.9021 -33.7866L-89.8871 -36.5306C-77.8121 -33.4366 -64.9872 -29.9133 -53.3847 -26.2546C-24.0147 -17.2106 5.69286 -6.23928 35.3629 2.38939C101.363 21.9521 172.545 34.3094 243.053 45.8267C297.533 54.8894 352.958 63.9754 408.353 70.6207C470.385 78.2507 533.865 82.3667 596.19 88.8907C675.075 96.9874 753.63 107.548 833.145 113.083C860.745 115.127 890.115 116.947 917.663 119.121C994.958 125.683 1073.35 132.589 1150.3 140.56L1150.3 140.569Z" fill="#ECE3D8"/>
</g>
<g opacity="0.89">
<path d="M1143.3 135.613C1068.35 131.124 990.968 125.141 916.403 118.235C861.473 112.849 804.818 105.546 749.775 100.716C717.473 97.7853 683.595 95.0413 651.323 92.0687C605.618 87.9527 559.493 82.6 514.493 76.2254C470.648 69.8227 422.745 62.9953 378.69 57.26C323.693 50.12 267.878 43.4327 213.945 33.5674C206.775 32.382 192.45 29.498 185.363 28.14C179.393 27.0247 172.283 25.5127 166.418 24.2901C161.715 23.2961 152.333 21.392 147.548 20.286C113.273 12.74 78.9977 3.96201 46.5001 -6.15066C21.3002 -13.8646 -3.43483 -22.4886 -28.5148 -30.3333C-42.9899 -34.8086 -58.7623 -39.2186 -73.7924 -42.9286L-78.4273 -44.044L-87.6974 -46.2793C-81.6974 -45.0473 -74.5048 -43.6987 -68.7898 -42.434C-53.5198 -39.06 -37.3873 -34.9766 -22.6723 -30.7766C-2.16737 -24.9666 19.6051 -18.0553 40.0051 -11.9793C60.7801 -5.81465 82.1402 0.00467041 103.538 5.28267C157.995 18.8347 216.885 29.2367 273.203 39.4847C298.125 43.9367 324.735 48.6127 349.815 52.6353C367.605 55.482 389.91 58.688 407.85 61.138C423.84 63.168 440.55 65.3007 456.608 67.0833C492.135 70.91 529.043 74.172 564.525 77.938C599.955 81.634 636.72 85.9693 671.978 90.2767C736.853 98.5087 802.343 105.303 868.178 109.811C882.983 110.871 897.788 112.028 912.555 113.255C989.22 120.185 1066.97 127.377 1143.31 135.609L1143.3 135.613Z" fill="#ECE3D8"/>
</g>
<g opacity="0.87">
<path d="M1136.31 130.653C1059.88 125.748 982.11 119.406 906.217 111.851C870.592 108.22 830.145 102.858 794.527 98.9706C766.065 95.9419 735.375 92.7266 706.777 90.2113C629.077 83.3233 550.14 74.2419 474.292 61.5859C468.854 60.7273 460.469 59.5093 455.122 58.6179C413.714 52.206 371.722 46.2466 330.179 40.2686C295.094 35.2286 259.372 29.7266 225.014 23.0346C155.624 9.81397 88.7395 -8.23665 24.1944 -28.7886C15.2694 -31.528 6.51683 -34.174 -2.46059 -36.7407C-20.1231 -41.8273 -38.7605 -46.6667 -57.2406 -50.484C-65.1681 -52.2107 -77.1605 -54.4647 -85.478 -56.0187C-76.3656 -54.6514 -65.8356 -53.1393 -56.7681 -51.422C-15.4656 -44.2306 23.4669 -32.4334 62.152 -21.252C109.612 -7.52738 158.804 4.63397 208.582 14.742C252.127 23.6926 296.212 32.592 340.282 40.488C379.447 47.558 420.187 53.5686 460.229 58.4546C495.877 62.6313 536.512 66.6119 571.987 70.8959C642.555 78.8713 714.247 89.7493 785.085 96.8519C825.675 100.949 866.647 103.74 907.342 107.352C982.957 114.637 1061.06 122.197 1136.31 130.657L1136.31 130.653Z" fill="#ECE3D8"/>
</g>
<g opacity="0.84">
<path d="M1129.31 125.692C1052.93 120.47 976.613 113.89 900.848 105.891C869.115 102.494 831.435 97.3328 799.687 93.5248C787.5 92.0781 773.333 90.4775 761.078 89.1055C687.398 81.0462 611.715 74.6482 539.145 63.2475C499.162 57.2088 455.573 49.1868 415.725 42.9428C365.213 34.6128 313.965 27.1602 263.828 17.9249C238.793 13.1602 213.84 7.93351 189.42 2.03484C177.143 -0.83516 164.985 -3.91982 152.843 -7.00916C96.81 -21.1632 43.89 -40.0212 -12.6825 -53.2232L-17.3025 -54.2218L-26.5425 -56.2238C-28.0725 -56.5738 -29.64 -56.8631 -31.2 -57.1618L-35.88 -58.0532C-49.605 -60.8065 -69.2851 -63.7652 -83.2951 -65.7625C-44.4751 -62.1412 -6.23256 -55.1645 29.9624 -45.6398C64.7474 -36.5585 102.78 -24.9945 137.58 -15.9412C173.407 -6.43517 210.547 2.06283 247.32 10.0802C283.882 18.1115 321.833 26.3528 358.973 33.1802C396.225 40.1382 435.083 46.1022 473.198 50.9042C553.073 60.0928 634.042 70.9662 713.28 82.0542C734.497 84.8215 759.367 87.8548 780.698 90.2161C819.592 94.4021 863.032 97.7202 902.04 101.397C977.445 109.125 1054.22 116.914 1129.31 125.697L1129.31 125.692Z" fill="#ECE3D8"/>
</g>
<g opacity="0.82">
<path d="M1122.32 120.732C1046.44 115.216 970.598 108.309 895.403 99.8857C863.933 96.339 826.508 90.9117 795.023 86.9217C767.108 83.4357 736.838 79.763 708.705 76.7997C664.943 71.9184 617.715 66.7711 574.56 60.4104C559.05 58.0771 542.595 55.5291 527.212 52.9717C508.462 49.7284 489.54 46.2891 470.872 42.9104C424.305 34.2164 376.777 26.2504 330.09 17.883C302.242 13.0204 273.48 7.5324 246.127 1.57774C209.647 -6.47693 172.808 -16.1509 137.64 -26.217C93.3075 -38.7703 50.3099 -53.2416 4.02745 -62.8082C-4.08754 -64.5676 -13.32 -66.1962 -21.5175 -67.7036L-23.8726 -68.0722L-33.3076 -69.5469C-36.4577 -70.0276 -39.5925 -70.5736 -42.78 -70.9516L-52.3125 -72.1929L-57.0825 -72.8136L-59.4675 -73.1262L-61.8674 -73.3876L-81.0825 -75.5109L-61.6799 -74.0923C-56.5425 -73.7003 -47.6625 -72.6876 -42.375 -72.1836C-37.1775 -71.6796 -28.5376 -70.4569 -23.1826 -69.8082C-21.9451 -69.6636 -19.6126 -69.3323 -18.405 -69.1363C-15.735 -68.7256 -7.00502 -67.3723 -4.14003 -66.9289C-1.46999 -66.5183 2.56505 -65.7063 5.265 -65.2209C10.4475 -64.3156 18.6899 -62.6356 23.9325 -61.4876C66.8624 -52.2523 107.947 -39.1343 149.535 -27.8363C187.612 -17.2616 227.82 -7.44758 266.798 1.75974C302.858 10.4257 340.238 18.821 377.175 25.9377C414.075 32.9844 452.76 39.1211 490.583 43.9977C541.08 50.5964 592.755 57.4471 642.878 65.105C693.368 72.5297 744.248 80.239 795.443 85.5964C828.893 89.129 868.088 92.4564 901.493 95.9097C974.603 103.908 1049.51 111.856 1122.33 120.736L1122.32 120.732Z" fill="#ECE3D8"/>
</g>
<g opacity="0.79">
<path d="M1115.32 115.776C1025.44 108.645 935.67 100.301 847.132 88.2283C810.397 82.927 770.01 77.383 733.252 72.8796C680.22 66.449 613.755 58.987 562.23 50.3163C518.43 43.3816 475.162 34.2256 432 25.9097C388.95 17.4303 345.135 9.44095 302.265 0.620959C277.68 -4.34904 253.14 -9.93037 229.192 -15.9924C199.47 -23.6737 169.5 -32.195 140.55 -40.8424C88.3873 -56.6437 35.8273 -72.6177 -21.4428 -79.6364C-39.8927 -82.1517 -60.1353 -83.799 -78.8853 -85.2504L-59.5053 -84.415C-54.3602 -84.2284 -45.4727 -83.477 -40.1778 -83.1224C-32.2202 -82.6277 -24.0377 -81.6524 -16.1027 -80.9104C-14.8352 -80.7984 -12.5402 -80.537 -11.3102 -80.369C-6.23268 -79.725 0.599714 -78.871 5.39976 -78.2177L7.76219 -77.8397L17.2123 -76.3277C22.3722 -75.5811 30.7648 -73.929 35.9623 -72.9537C38.4673 -72.5103 42.6972 -71.6377 45.2397 -71.0637C84.5248 -62.7057 123.517 -50.5863 161.235 -39.8157C196.035 -29.7683 232.395 -20.085 267.825 -10.9757C295.86 -3.63503 325.027 3.54697 353.557 10.0336C379.132 15.6476 406.095 21.0423 432.142 25.6297C485.07 34.7063 539.265 41.3843 592.425 49.845C664.612 60.8583 736.402 73.5516 809.85 81.0043C835.44 83.7156 870.51 87.1083 896.025 89.899C968.67 98.3316 1042.94 106.601 1115.34 115.78L1115.32 115.776Z" fill="#ECE3D8"/>
</g>
<g opacity="0.76">
<path d="M1108.33 110.815C1031.66 104.604 955.327 96.7962 879.585 87.1596C841.807 82.1849 804.33 76.0202 766.612 70.8356C729.052 65.5762 690.795 60.8582 653.182 55.8416C553.335 43.5776 453.9 20.0763 357.39 0.00492557C308.542 -10.2477 259.852 -21.1164 213.12 -34.7524C166.357 -48.0897 121.117 -63.6064 73.3722 -75.4317C37.6196 -84.2284 -0.0603203 -89.8937 -38.2503 -92.7404C-44.8578 -93.2491 -50.8803 -93.6271 -57.4428 -93.9958C-63.8478 -94.4111 -70.2678 -94.6864 -76.6953 -95.0037C-67.0353 -94.8964 -57.3528 -94.8077 -47.7078 -94.3971C-5.73781 -92.9831 36.0372 -88.0551 75.4722 -78.8898C123.9 -67.7411 169.425 -52.3224 216.33 -39.0737C262.935 -25.6991 309.877 -12.1191 357.727 -0.587749C381.66 5.15225 406.2 10.4582 430.725 15.1389C486.172 25.5782 542.842 33.2876 598.665 42.8682C641.97 50.0922 685.695 57.9322 729.307 64.4516C754.357 68.1662 779.527 71.5962 804.877 74.4289C906.427 85.3256 1007.35 97.9302 1108.31 110.824L1108.33 110.815Z" fill="#ECE3D8"/>
</g>
<g opacity="0.74">
<path d="M1101.33 105.854C1037.9 100.492 974.445 93.688 911.655 85.8853C880.44 82.1613 848.738 77.406 817.883 72.506C793.388 68.5767 767.745 64.5867 743.153 61.096C699.698 54.7073 655.178 49.0467 611.94 42.1167C540.233 31.1454 471.278 14.2847 402.157 -1.61462C339.3 -15.9506 275.017 -30.5013 215.145 -49.1726C146.797 -70.3733 78.8174 -94.2946 1.96495 -100.632C-18.4876 -102.648 -39.3976 -103.721 -60.0901 -104.375C-61.6875 -104.435 -63.2925 -104.463 -64.89 -104.51L-74.4976 -104.757C-68.4375 -104.827 -61.1101 -104.93 -55.2526 -104.907C-36.0152 -104.851 -16.6575 -104.239 2.46751 -102.923C67.1175 -98.952 126.908 -82.194 184.103 -64.064C241.478 -46.5266 298.575 -28.112 357.442 -12.5673C380.49 -6.57533 405.795 -0.58329 429.382 4.33071C477.098 14.2474 528.713 22.162 577.043 30.9494C634.995 41.216 694.313 52.85 752.918 61.4087C793.133 67.3727 834.908 71.6894 875.468 76.5987C950.738 86.1653 1026.2 95.7553 1101.33 105.845L1101.33 105.854Z" fill="#ECE3D8"/>
</g>
<g opacity="0.71">
<path d="M1094.34 100.898C1031.19 95.242 968.212 88.1253 905.782 79.898C880.755 76.692 855.892 73.0053 831.202 68.9079C810.315 65.5013 787.147 61.5206 766.395 58.1793C745.717 54.8986 722.002 51.2726 701.347 48.1086C680.595 45.0333 656.775 41.4166 636.21 38.136C614.565 34.6873 592.965 30.8933 571.635 26.796C504.855 13.9626 439.627 -3.87334 374.67 -19.8707C345.525 -27.188 314.992 -34.9813 286.335 -42.9894C227.91 -58.898 173.482 -80.0473 114.457 -95.0133C76.2449 -104.739 35.7074 -110.381 -5.42263 -112.733C-22.5676 -113.745 -40.6951 -114.207 -57.9151 -114.408L-62.7001 -114.436L-72.2776 -114.497C-68.3627 -114.604 -61.5226 -114.842 -57.9226 -114.945C-43.7926 -115.267 -28.8601 -115.309 -14.7752 -115.015C61.5149 -113.825 120.067 -100.59 186.847 -79.0067C240.232 -62.314 303.12 -40.3154 357.337 -24.934C403.725 -11.6434 451.957 -0.956693 500.902 8.0453C604.92 26.9173 707.032 50.4933 813.652 63.3359C838.672 66.4719 863.745 69.4399 888.66 72.8793C957.142 82.2033 1025.94 91.3033 1094.36 100.893L1094.34 100.898Z" fill="#ECE3D8"/>
</g>
<g opacity="0.68">
<path d="M1087.34 95.9375C1005.66 88.0135 924.293 78.2975 844.215 65.4595C810.69 59.8268 776.67 53.5035 743.1 47.9268C706.928 41.8928 668.513 35.8402 632.408 29.6568C595.845 23.2682 558.96 15.9695 523.553 7.42018C484.965 -1.85249 447.278 -12.5905 409.32 -22.7545C368.543 -33.8892 327.705 -44.9492 287.61 -57.0311C224.678 -75.5812 166.005 -100.123 99.0902 -112.914C44.4902 -123.494 -13.2372 -125.165 -70.0947 -124.24C-51.1348 -125.258 -31.8673 -125.851 -12.8773 -125.874C-0.464863 -125.888 12.9377 -125.613 25.3727 -125.015C100.058 -121.861 158.918 -104.925 223.41 -83.0152C279.33 -64.2179 333.675 -43.5865 391.89 -27.5752C445.883 -12.0678 514.365 0.76083 571.088 12.6562C620.7 22.9182 684.345 36.9135 734.348 45.3275C778.65 53.1628 824.07 58.5295 869.003 64.7175C941.655 75.2315 1014.68 85.3582 1087.34 95.9375L1087.34 95.9375Z" fill="#ECE3D8"/>
</g>
<g opacity="0.66">
<path d="M1080.35 90.9766C1006.83 83.5659 933.795 74.1766 861.6 62.8086C826.365 57.0966 791.543 50.1339 756.608 43.7686C692.828 32.0786 627.96 22.0919 565.395 7.92859C557.213 6.13659 546.833 3.57457 538.673 1.6659C524.078 -1.96943 509.16 -5.87073 494.82 -9.85607C463.185 -18.7367 431.46 -28.2474 400.118 -37.5061C357.99 -49.9567 313.455 -63.3361 272.363 -76.9534C244.898 -86.0394 216.638 -96.2734 188.94 -105.019C155.303 -115.621 120.03 -124.353 82.9951 -129.019C49.065 -133.429 14.2051 -134.815 -20.4224 -134.853C-36.06 -134.773 -52.2374 -134.461 -67.8825 -133.994C-55.32 -134.857 -42.5399 -135.609 -29.9849 -136.033C-17.5499 -136.509 -4.28249 -136.775 8.09251 -136.803C33.555 -136.719 59.0625 -135.557 84.1425 -132.65C191.903 -120.227 278.693 -75.2967 374.558 -45.3554C413.91 -32.774 455.16 -22.0921 496.793 -12.8894C560.535 1.13393 674.925 28.3173 738.825 39.4566C759.675 43.2226 782.032 46.7039 803.228 49.7466C895.793 62.9999 987.93 77.2379 1080.35 90.9672L1080.35 90.9766Z" fill="#ECE3D8"/>
</g>
<g opacity="0.63">
<path d="M1073.36 86.0207C992.468 77.2661 911.97 66.5234 833.07 52.3087C812.085 48.4494 781.613 42.2334 760.725 38.1454C712.62 28.6861 663.758 20.0481 615.886 10.1734C597.893 6.42142 580.043 2.40342 562.373 -1.90392C503.348 -16.1092 447.713 -35.0652 391.463 -52.9386C346.785 -67.3726 301.808 -82.1799 258.023 -97.6919C211.883 -114.137 164.708 -130.485 112.546 -138.133C104.978 -139.258 97.2304 -140.266 89.588 -141.162L84.953 -141.633L80.318 -142.105C47.7304 -145.203 14.483 -145.819 -18.4345 -145.292C-27.0745 -145.129 -38.1295 -144.816 -46.792 -144.489C-53.0919 -144.27 -59.392 -143.985 -65.6995 -143.733C-56.752 -144.415 -46.5294 -145.301 -37.4619 -145.791C-9.1719 -147.518 19.508 -148.395 47.9105 -147.509C115.988 -145.651 169.786 -133.784 228.758 -113.358C286.853 -93.2026 340.606 -68.9593 399.886 -50.2413C408.023 -47.698 417.113 -44.8139 425.348 -42.4059C465.218 -30.5573 506.738 -21.0746 547.74 -10.9106C587.408 -1.37194 626.91 8.54938 666.84 17.71C703.86 26.1847 741.435 33.7401 779.618 39.9327C804.06 43.8667 828.638 47.4694 853.118 51.296C904.598 59.6494 1020.78 77.8074 1073.35 86.0254L1073.36 86.0207Z" fill="#ECE3D8"/>
</g>
<g opacity="0.61">
<path d="M1066.36 81.0601C992.033 72.6927 918.135 62.09 845.535 49.0747C815.663 43.5354 785.288 36.8854 755.73 30.7207C727.763 24.8687 693.9 18.0554 665.978 12.3621C659.265 10.9481 645.428 8.12475 639.09 6.72942C588.308 -3.93391 538.538 -16.6413 491.07 -32.1953C455.88 -43.7219 418.358 -57.0639 383.52 -69.1366C343.133 -83.3279 300.84 -98.4153 260.648 -112.989C217.703 -128.679 172.68 -143.281 123.713 -149.959C68.5727 -157.719 11.4151 -157.253 -44.6698 -154.485L-63.4872 -153.487C-52.0872 -154.597 -37.1773 -155.848 -26.0172 -156.585C11.6178 -159.157 49.7852 -160.085 87.5327 -157.673C209.745 -150.747 290.715 -102.27 391.815 -66.3226C448.5 -45.7099 511.178 -30.5526 571.35 -14.4246C632.108 1.54938 693.06 17.7661 756.39 29.4281C768.18 31.6167 780.848 33.8007 792.75 35.7747C883.965 50.8107 974.963 66.3554 1066.37 81.0507L1066.36 81.0601Z" fill="#ECE3D8"/>
</g>
<g opacity="0.58">
<path d="M1059.36 76.0993C988.44 67.7087 917.993 57.0267 848.798 44.1793C812.7 37.3613 777.405 29.0313 741.885 21.1587C680.138 7.45734 616.253 -5.36664 556.733 -22.4513C502.35 -37.828 451.515 -57.764 400.493 -76.9486C349.883 -95.8953 298.463 -116.037 247.17 -134.167C230.888 -139.757 214.11 -145.175 196.973 -149.641C175.5 -155.199 153.068 -159.544 130.253 -162.353L125.67 -162.895C124.14 -163.072 122.618 -163.268 121.088 -163.427L116.475 -163.875L111.863 -164.323C106.425 -164.859 102.855 -165.055 97.9727 -165.471C67.0427 -167.622 35.4002 -167.678 4.3502 -166.679C-16.6422 -166.119 -40.3573 -164.579 -61.2822 -163.217C-51.9447 -164.271 -33.3974 -166.003 -24.0148 -166.768C7.08018 -169.269 38.8277 -170.777 70.2152 -170.31C104.955 -169.75 139.905 -166.675 173.048 -160.039C215.288 -151.653 254.295 -137.956 290.888 -122.575C324.69 -108.355 357.705 -93.296 392.49 -80.024C424.418 -67.5826 457.913 -56.742 491.985 -46.7973C543.015 -31.8967 594.24 -17.1406 645.915 -3.08931C662.67 1.41869 681.12 6.1227 698.183 10.22C739.185 20.034 781.403 27.7994 823.77 34.9814C901.86 49.0514 980.873 62.8927 1059.38 76.104L1059.36 76.0993Z" fill="#ECE3D8"/>
</g>
<g opacity="0.55">
<path d="M1052.37 71.1436C984.75 62.7109 917.813 52.0616 851.948 39.3169C822.54 33.6796 792.15 26.5069 763.365 19.5956C704.963 5.45089 645.54 -7.33108 588.248 -23.1931C565.455 -29.5817 542.7 -36.5631 520.86 -44.1651C482.528 -57.3858 445.995 -72.8838 409.23 -87.6771C363.533 -106.264 317.535 -125.244 270.435 -142.398C211.005 -164.01 162.023 -175.018 92.7751 -177.851C54.6301 -179.27 16.2152 -178.024 -21.7724 -175.667C-30.8174 -175.042 -50.0023 -173.698 -59.0999 -172.97C-40.9574 -175.163 -21.5398 -177.039 -3.37478 -178.518C27.7126 -180.978 59.3926 -182.308 90.7276 -181.617C145.853 -180.539 196.575 -172.484 245.333 -156.38C292.553 -140.872 334.11 -119.382 377.993 -100.683C388.185 -96.3758 398.873 -91.8398 409.298 -87.7471C453.87 -69.8084 502.14 -55.2718 549.45 -40.3804C608.19 -22.2551 667.133 -3.78441 728.835 10.2296C740.19 12.7683 752.843 15.5916 764.37 17.8176C859.838 36.2509 956.108 54.2876 1052.37 71.1389L1052.37 71.1436Z" fill="#ECE3D8"/>
</g>
<g opacity="0.53">
<path d="M1045.37 66.1828C965.857 55.5802 887.062 42.2662 810.63 24.9015C766.845 14.3922 723.577 3.00552 680.032 -7.8678C613.282 -24.6118 547.23 -43.3018 487.47 -68.4831C416.205 -98.2471 348.067 -131.315 273.465 -157.85C250.575 -165.839 226.747 -173.096 201.825 -178.285C142.665 -190.596 79.2447 -191.305 17.5647 -188.08C-6.96035 -186.928 -32.5053 -184.809 -56.9029 -182.709L-38.4903 -184.986C-20.2953 -187.072 -1.18533 -188.948 17.1897 -190.381C23.3697 -190.885 31.9421 -191.366 38.227 -191.781C42.1195 -191.986 50.5796 -192.369 54.6521 -192.579C59.4297 -192.724 66.5321 -192.976 71.1146 -193.092C75.6371 -193.162 83.1521 -193.251 87.6071 -193.284C147.382 -193.522 203.437 -186.405 256.425 -168.835C270.195 -164.313 283.86 -159.044 296.767 -153.603C332.715 -138.24 366.982 -120.74 402.735 -105.219C471.975 -75.2265 547.567 -51.5945 621.967 -27.0525C666.292 -12.8145 712.14 0.0654893 759.33 10.1828C782.97 15.2415 806.805 19.9082 830.587 24.6682C901.327 39.3775 973.875 52.9575 1045.36 66.1875L1045.37 66.1828Z" fill="#ECE3D8"/>
</g>
<g opacity="0.5">
<path d="M1038.38 61.2221C971.4 51.8981 904.973 40.0541 840.165 25.9748C836.033 25.0835 831.113 23.9261 826.943 22.9881L822.555 21.9521C799.11 16.5155 776.16 10.2808 753.225 4.10681C701.828 -10.0332 649.77 -23.4125 599.4 -39.0645C563.108 -50.4139 527.873 -63.4012 494.685 -77.9892C428.76 -107.291 366.495 -140.261 296.775 -166.096C280.905 -171.911 264.263 -177.492 247.463 -182.187C230.64 -186.839 213.038 -190.862 195.165 -193.671C168.27 -198.025 140.393 -200.186 112.635 -200.811C81.6678 -201.535 50.3403 -200.485 19.5228 -198.529C-5.33218 -197.087 -30.0072 -194.787 -54.6897 -192.458C-43.6272 -193.975 -28.8373 -195.869 -17.9473 -197.069C25.1327 -202.006 68.9403 -205.198 112.808 -204.783C153.683 -204.349 194.895 -200.293 233.108 -191.025C295.253 -176.554 344.85 -147.835 397.133 -123.424C403.725 -120.251 412.95 -116.06 419.685 -112.999C459.9 -94.7286 503.288 -79.0019 546.015 -63.1446C618.375 -36.5306 692.138 -10.6446 771.968 6.33276C799.305 12.3854 833.003 19.4088 860.31 25.4194C919.193 38.1314 978.773 49.7514 1038.38 61.2314L1038.38 61.2221Z" fill="#ECE3D8"/>
</g>
<g opacity="0.47">
<path d="M1031.39 56.2661C955.568 45.0615 880.523 30.8001 808.148 12.7261C770.888 3.02413 734.003 -8.14322 697.395 -18.7272C669.413 -26.9452 640.657 -35.4059 613.275 -44.3566C574.47 -56.9192 537.023 -71.2645 501.983 -87.5885C428.903 -121.977 361.77 -162.349 279.615 -188.477C254.887 -196.233 228.81 -202.547 201.795 -206.435C191.318 -207.863 180.57 -209.16 169.935 -210.014L165.345 -210.411L163.05 -210.607C157.177 -210.994 156.338 -211.017 151.523 -211.335L149.213 -211.479L146.895 -211.577L142.267 -211.769L137.64 -211.96C136.095 -212.016 134.557 -212.105 133.005 -212.123L123.72 -212.315L119.078 -212.408C113.655 -212.441 109.957 -212.427 105.135 -212.459C80.4825 -212.347 55.2676 -211.227 30.7651 -209.603C3.03757 -207.751 -24.9975 -205.081 -52.4925 -202.211C-48.2025 -202.837 -33.33 -204.909 -29.6625 -205.403C11.6175 -210.728 53.445 -214.9 95.6401 -216.057C117.473 -216.753 139.702 -216.454 161.497 -215.147C165.75 -214.923 171.292 -214.433 175.567 -214.121C182.827 -213.514 191.692 -212.525 198.832 -211.563C231.247 -207.396 262.59 -199.887 291.045 -189.369C332.73 -173.955 369 -153.491 406.92 -134.904C472.83 -102.401 544.53 -74.8299 616.11 -47.5066C631.95 -41.5612 648.57 -35.7419 664.808 -30.2446C694.913 -20.3326 726.39 -11.1439 758.153 -3.49521C779.34 1.59146 802.485 6.89279 823.815 11.7228C892.2 27.8554 961.718 42.3081 1031.39 56.2614L1031.39 56.2661Z" fill="#ECE3D8"/>
</g>
<g opacity="0.45">
<path d="M1024.39 51.3056C953.415 40.2876 883.193 26.1709 815.475 8.86227C776.663 -1.33907 739.215 -13.4351 701.61 -25.2044C676.59 -32.9977 651.48 -41.0897 626.918 -49.4151C583.095 -64.2877 540.818 -81.3024 502.08 -100.916C416.925 -144.582 336.128 -198.282 226.403 -216.412C178.5 -224.298 128.355 -225.026 79.1026 -222.875C51.3452 -221.648 23.2727 -219.408 -4.2449 -216.836C-12.2774 -215.973 -23.7824 -214.895 -31.8823 -213.948L-50.3023 -211.946L-32.1073 -214.648C-14.0999 -217.186 4.75516 -219.585 22.9276 -221.554C107.063 -230.477 198.113 -233.118 277.208 -209.972C326.963 -195.398 367.875 -171.803 409.733 -150.168C454.853 -126.378 503.25 -105.074 551.723 -84.0884C587.385 -68.7537 623.708 -53.4564 661.29 -39.9511C682.785 -32.2557 705.06 -24.9897 727.605 -18.5637C744.038 -13.7991 762.345 -9.16504 779.175 -4.93704C807.923 2.14696 837.128 9.34295 865.965 16.3476C918.293 28.6676 971.235 40.2316 1024.38 51.3149L1024.39 51.3056Z" fill="#ECE3D8"/>
</g>
<g opacity="0.42">
<path d="M1017.39 46.3447C921.12 30.3474 826.192 9.35673 738.63 -20.5379C661.942 -46.2886 583.83 -71.7873 516.982 -107.053C485.775 -123.172 457.147 -141.143 426.99 -157.953C405.097 -170.212 382.32 -182.247 358.275 -192.827C341.872 -200.046 324.457 -206.589 306.607 -212.282C305.377 -212.637 297.337 -215.073 296.19 -215.413C293.152 -216.277 288.697 -217.49 285.645 -218.349C278.197 -220.295 269.587 -222.311 261.945 -224C257.895 -224.77 252.825 -225.867 248.737 -226.571C246.262 -227.015 239.992 -228.088 237.63 -228.508L228.645 -229.829L226.402 -230.16C223.792 -230.552 221.977 -230.701 219.615 -231.009C217.47 -231.233 212.805 -231.877 210.532 -232.064C196.987 -233.469 182.887 -234.346 169.17 -234.943C164.572 -235.097 157.507 -235.256 152.962 -235.387C148.132 -235.424 141.45 -235.447 136.725 -235.485C130.537 -235.391 124.342 -235.335 118.155 -235.209C81.4872 -234.369 43.2896 -231.434 7.07212 -227.827C-10.8153 -226.109 -30.2628 -223.743 -48.0979 -221.699L-29.9629 -224.523C-23.9179 -225.47 -17.8205 -226.273 -11.7379 -227.127C43.0196 -234.789 99.1646 -240.147 155.445 -239.652C177.337 -239.405 199.567 -238.229 221.047 -235.601C231.63 -234.393 242.895 -232.633 253.185 -230.725C257.377 -229.843 262.522 -228.858 266.625 -227.897L275.467 -225.811C277.935 -225.213 281.655 -224.149 284.145 -223.477C288.142 -222.446 293.017 -220.864 296.94 -219.693C298.02 -219.385 300.097 -218.699 301.125 -218.339C308.857 -215.726 318.172 -212.399 325.425 -209.361C341.07 -203.042 356.077 -195.776 370.47 -188.412C382.29 -182.327 394.425 -175.812 406.005 -169.526C471.247 -133.644 540.66 -100.749 611.4 -69.2439C618.097 -66.2526 627.637 -62.2813 634.485 -59.4066C667.957 -45.4626 703.462 -32.8113 739.972 -22.2273C762 -15.8526 786.06 -9.59928 808.402 -3.69128C876.69 14.5787 947.175 31.0801 1017.37 46.3401L1017.39 46.3447Z" fill="#ECE3D8"/>
</g>
<g opacity="0.39">
<path d="M1010.4 41.384C950.393 31.0427 891.278 18.0087 834.06 2.61333C805.41 -5.05866 777.45 -13.846 750.323 -23.436C747.03 -24.5886 741.113 -26.6513 738.083 -27.7153C728.693 -31.1873 719.153 -34.4913 709.778 -37.9586C680.378 -48.5473 650.438 -59.7613 621.87 -71.232C574.643 -90.174 530.393 -112.163 490.515 -136.775C463.8 -153.09 437.978 -169.909 409.785 -185.225C393.548 -194.129 376.305 -202.753 358.32 -210.238C336.548 -219.375 313.065 -227.038 288.57 -232.89C267.008 -238.005 244.575 -241.687 221.805 -243.987C163.598 -249.573 104.093 -246.685 46.0203 -241.589C15.6828 -238.873 -15.8471 -235.219 -45.8996 -231.443L-27.8096 -234.374C64.3954 -248.551 171.63 -259.817 264.458 -242.867C268.92 -241.948 273.555 -241.066 277.943 -240.114C281.588 -239.269 285.33 -238.331 288.975 -237.463C292.05 -236.619 296.708 -235.368 299.798 -234.514C307.185 -232.381 315.653 -229.544 322.793 -227.038C325.65 -225.951 329.963 -224.317 332.835 -223.216C334.988 -222.376 338.475 -220.883 340.688 -219.991C354.878 -214.079 368.558 -207.331 381.653 -200.545C388.485 -197.027 396.135 -192.785 402.885 -189.145C469.493 -151.48 538.515 -114.842 609.638 -80.6026C624.728 -73.4813 643.193 -65.1466 658.905 -58.6133C664.793 -56.2333 672.54 -53.0647 678.525 -50.7546C682.305 -49.3266 690.653 -46.172 694.485 -44.7253C723.765 -33.9266 755.078 -24.6866 786.053 -15.904C800.04 -12.0213 814.545 -7.85867 828.54 -3.98534C888.06 12.7027 949.043 27.3373 1010.39 41.3887L1010.4 41.384Z" fill="#ECE3D8"/>
</g>
<g opacity="0.37">
<path d="M1003.4 36.4279C931.672 23.2166 861.232 6.47729 794.557 -14.7514C772.837 -21.742 750.427 -30.016 729.645 -38.066C697.837 -50.3067 666.172 -62.8227 635.34 -75.9967C604.447 -89.1614 574.41 -103.339 546.525 -118.902C499.5 -144.536 460.635 -175.247 413.992 -201.087C386.325 -216.58 355.522 -230.207 321.562 -239.778L313.072 -242.079L310.95 -242.653C307.762 -243.423 303.337 -244.463 300.172 -245.252C278.542 -250.189 255.93 -253.731 233.167 -255.901C159.322 -262.486 84.2099 -256.144 11.2873 -248.038C-6.50265 -246.05 -25.9652 -243.432 -43.6952 -241.187C-31.6577 -243.199 -19.6427 -245.313 -7.4927 -247.067C91.1924 -262.066 216.082 -274.181 311.227 -246.671C346.92 -236.479 377.97 -221.167 407.122 -205.025C475.905 -165.797 543.772 -125.711 615.54 -88.6387C634.845 -78.9507 654.727 -69.4074 675.352 -60.8394C698.415 -51.0627 722.835 -42.1634 747.66 -34.23C778.08 -24.4954 808.912 -15.302 839.797 -6.16937C893.4 9.35663 948.097 23.2166 1003.4 36.4326L1003.4 36.4279Z" fill="#ECE3D8"/>
</g>
<g opacity="0.34">
<path d="M996.405 31.4673C957.832 24.0193 919.275 15.2273 882.075 5.38998C853.605 -2.25869 824.7 -10.6027 797.445 -19.7634C778.702 -25.9654 759.03 -33.5627 741.082 -40.7354C699.607 -57.7967 657.93 -75.5534 618.525 -94.4347C586.402 -109.858 555.795 -126.831 527.662 -144.998C499.417 -163.137 473.82 -182.812 445.5 -200.886C428.085 -211.997 409.597 -222.488 389.565 -231.747C264.27 -290.043 100.395 -269.873 -41.5054 -250.945C6.47208 -259.457 55.402 -266.597 104.857 -270.933C138.84 -273.817 173.812 -275.534 208.072 -274.563C210.03 -274.531 213.352 -274.419 215.145 -274.381C215.527 -274.335 225.96 -273.877 226.912 -273.807C229.447 -273.695 233.699 -273.443 236.309 -273.215C250.372 -272.267 264.525 -270.718 278.19 -268.562C313.357 -263.13 346.252 -252.709 375.285 -239.335C390.442 -232.475 404.677 -224.873 418.597 -217.075C481.117 -180.941 544.792 -140.131 607.56 -104.421C625.507 -94.3927 645.742 -83.6734 664.98 -74.676C703.215 -56.4714 745.8 -41.58 788.475 -27.8274C855.855 -5.48804 925.425 13.8179 996.412 31.4579L996.405 31.4673Z" fill="#ECE3D8"/>
</g>
<g opacity="0.32">
<path d="M989.415 26.507C894.585 6.90232 802.162 -19.4457 721.53 -56.5504C711.637 -61.0444 701.167 -65.8184 691.282 -70.3684C663.81 -83.1784 636.525 -96.4037 610.507 -110.352C579.667 -126.877 550.71 -144.816 523.95 -163.884C492.982 -185.747 464.737 -209.197 430.26 -229.021C418.95 -235.494 406.575 -241.92 394.012 -247.436C390.345 -249.12 386.16 -250.716 382.38 -252.312C378.555 -253.759 374.257 -255.425 370.38 -256.811C273.885 -290.724 157.477 -284.232 52.3797 -272.538C21.6522 -269.201 -8.83529 -264.936 -39.2927 -260.675C-22.2378 -263.904 -2.44528 -267.087 14.9697 -269.91C97.9572 -282.562 191.032 -292.492 275.947 -282.459C278.205 -282.146 285.592 -281.218 287.535 -280.928C288.825 -280.7 293.01 -280.009 294.397 -279.766L298.972 -278.992C299.73 -278.861 300.495 -278.74 301.252 -278.6C302.272 -278.38 311.205 -276.607 312.525 -276.327C317.047 -275.366 322.417 -273.98 326.91 -272.92C328.815 -272.416 336.69 -270.195 338.79 -269.621C343.837 -268.016 350.752 -265.934 355.522 -264.161C357.967 -263.279 361.365 -262.15 363.675 -261.212C393.105 -250.082 419.227 -235.862 443.895 -221.008C477.285 -200.704 510.232 -179.676 542.317 -158.55C581.002 -133.336 619.395 -107.697 662.775 -85.5304C701.092 -65.5757 744.097 -49.5177 787.612 -34.393C820.155 -22.997 853.125 -11.9697 886.89 -2.02032C920.43 8.08301 955.147 17.449 989.43 26.521L989.415 26.507Z" fill="#ECE3D8"/>
</g>
<g opacity="0.29">
<path d="M982.418 21.5508C963.203 17.3694 944.138 12.8707 925.283 8.09207C917.34 5.97807 907.268 3.30875 899.355 1.16209C893.73 -0.433912 879.353 -4.56859 873.728 -6.20193C853.058 -12.4786 831.173 -19.4879 811.23 -26.6466C803.37 -29.3346 794.67 -32.7039 786.938 -35.6299C782.595 -37.2166 775.478 -40.2406 771.128 -42.0046C755.498 -48.4119 740.243 -55.5332 725.348 -62.5892C683.408 -83.0106 642.12 -104.085 603.683 -127.041C573.075 -145.255 544.995 -165.046 518.475 -185.57C492.173 -206.01 466.485 -227.225 435.33 -244.939C428.603 -248.645 420.908 -252.821 413.768 -256.195L406.253 -259.686L398.528 -262.995L396.6 -263.821C393.008 -265.319 388.328 -267.003 384.668 -268.431C381.068 -269.691 377.558 -270.867 374.438 -271.959C370.313 -273.294 366.008 -274.526 361.86 -275.805L357.57 -276.953L353.288 -278.101L351.15 -278.675L350.078 -278.959L348.983 -279.211C323.078 -285.572 295.568 -289.408 268.005 -291.657C184.268 -297.836 99.7579 -288.75 17.813 -278.208C0.937962 -275.935 -20.242 -272.865 -37.0945 -270.429C-13.5745 -274.876 11.4755 -279.137 35.3855 -282.8C84.0454 -290.164 133.943 -295.797 183.96 -297.743C226.298 -299.245 269.723 -298.237 310.77 -290.957L313.065 -290.579C313.823 -290.439 314.573 -290.281 315.323 -290.127L324.338 -288.283L326.588 -287.821C327.863 -287.509 331.875 -286.571 333.233 -286.239C339.548 -284.821 345.608 -283.005 351.735 -281.321C353.483 -280.765 357.293 -279.566 359.115 -278.987L363.33 -277.657L367.44 -276.206C372.968 -274.335 380.22 -271.502 385.605 -269.388C392.31 -266.569 400.163 -263.107 406.658 -260.036C418.83 -254.109 431.01 -247.581 442.215 -240.973C501.293 -206.178 552.945 -166.74 607.8 -129.565C618.338 -122.505 629.4 -115.407 640.485 -108.687C665.055 -93.7579 691.553 -79.9352 719.738 -67.7226C734.88 -61.0772 751.11 -54.7259 766.8 -48.6126C793.268 -38.5699 820.193 -28.3593 847.523 -19.2033C863.49 -13.7106 881.063 -8.18524 897.368 -3.08457C905.43 -0.550569 914.64 2.09076 922.665 4.55009C930.87 7.01876 939.878 9.51075 948.158 11.9561C959.49 15.2694 971.04 18.2701 982.403 21.5461L982.418 21.5508Z" fill="#ECE3D8"/>
</g>
<g opacity="0.26">
<path d="M975.42 16.5903C904.748 0.322333 836.348 -20.6077 774.188 -47.203C754.23 -55.757 733.238 -66.313 714.698 -76.1177C680.093 -94.5464 646.335 -113.614 614.438 -133.849C575.738 -158.195 541.628 -185.122 508.725 -212.496C493.71 -224.863 478.043 -237.314 460.838 -248.551C457.223 -251.015 453.008 -253.437 449.22 -255.808C447.57 -256.778 442.23 -259.83 440.595 -260.782C435.968 -263.27 430.98 -265.939 426.128 -268.268C424.283 -269.136 420.638 -270.988 418.673 -271.838L410.963 -275.188L409.035 -276.024C406.958 -276.859 404.97 -277.615 403.088 -278.376C401.318 -279.09 397.065 -280.76 395.048 -281.395C387.255 -284.148 378.195 -287.116 369.93 -289.244L365.633 -290.392L363.488 -290.966C360.458 -291.718 353.378 -293.3 350.355 -294.014C345.465 -294.938 339.698 -296.188 334.748 -296.991L325.74 -298.48C324.99 -298.601 324.248 -298.736 323.49 -298.844L321.21 -299.147L316.658 -299.754L312.113 -300.379C233.91 -310.226 153.023 -304.154 75.2853 -295.302C38.6404 -291.022 1.3577 -285.674 -34.8898 -280.182C-22.8748 -282.436 -10.8972 -284.783 1.22281 -286.836C85.8228 -301.476 173.678 -312.993 261.968 -309.414C336.81 -305.937 393.09 -288.334 447.585 -256.867C454.208 -253.082 461.445 -248.598 467.873 -244.645C471.615 -242.214 477.323 -238.634 480.968 -236.217C544.395 -195.528 595.14 -148.054 659.843 -108.234C702.015 -82.007 751.74 -61.231 801.81 -41.3883L805.74 -39.8017L807.705 -39.0083C812.003 -37.3937 828.78 -30.865 833.738 -29.157C879.443 -12.217 927.21 2.62766 975.428 16.581L975.42 16.5903Z" fill="#ECE3D8"/>
</g>
<g opacity="0.24">
<path d="M968.43 11.6294C927.622 1.7174 887.018 -10.136 848.963 -23.6926C799.448 -41.0433 753.09 -61.9453 711.908 -86.324C651.885 -120.988 595.507 -158.307 547.41 -199.607C517.837 -224.271 489.765 -251.753 453.052 -272.613C448.342 -275.203 443.707 -277.863 438.697 -280.233L435.007 -282.063L433.163 -282.977C429.63 -284.55 423.39 -287.504 419.692 -288.909C417.765 -289.669 413.707 -291.307 411.765 -292.077L407.685 -293.547C399.892 -296.413 390.832 -299.255 382.515 -301.467L378.202 -302.624L376.042 -303.198C373.05 -303.879 365.843 -305.569 362.835 -306.222C357.78 -307.151 352.26 -308.378 347.145 -309.171L338.085 -310.623C337.327 -310.744 336.577 -310.875 335.82 -310.987L333.532 -311.285C331.417 -311.542 326.542 -312.205 324.382 -312.475C319.072 -313.18 311.31 -313.866 305.97 -314.445C299.94 -314.851 293.46 -315.467 287.415 -315.798C199.83 -320.941 112.185 -310.646 26.91 -298.914C8.10746 -296.221 -13.9425 -292.81 -32.6925 -289.931C27.2325 -301.705 88.6125 -311.668 150.945 -317.422C191.61 -321.123 232.882 -322.952 273.997 -321.253C279.757 -320.852 287.362 -320.521 292.95 -320.045C297.435 -319.62 302.557 -319.135 307.08 -318.687C314.332 -317.795 323.235 -316.713 330.33 -315.443C333.165 -314.972 336.803 -314.417 339.51 -313.861C345.555 -312.643 351.63 -311.5 357.517 -310.011C359.205 -309.629 362.595 -308.789 364.177 -308.425C367.095 -307.655 374.302 -305.643 377.212 -304.845C382.035 -303.282 387.27 -301.789 391.965 -300.118L400.2 -297.211C402.45 -296.403 405.93 -294.952 408.233 -294.098C421.493 -288.825 434.168 -282.954 446.01 -276.523C520.26 -236.684 572.512 -184.338 634.38 -137.643C664.387 -115.033 698.49 -94.528 735.967 -76.7573C760.905 -65.016 786.502 -53.6013 812.512 -42.8073C862.207 -22.26 914.805 -4.64328 968.437 11.6201L968.43 11.6294Z" fill="#ECE3D8"/>
</g>
<g opacity="0.21">
<path d="M961.433 6.67334C932.61 -0.797993 903.225 -9.33804 875.925 -18.8114C860.685 -23.9027 841.628 -31.108 826.965 -36.9647C822.443 -38.7007 815.648 -41.622 811.148 -43.5307C806.1 -45.6307 800.288 -48.1507 795.563 -50.3114C764.483 -63.9614 736.133 -79.884 709.575 -96.7914C681.863 -114.333 655.245 -132.491 629.708 -151.256C606.338 -168.565 584.078 -186.564 563.265 -205.058C535.71 -228.947 511.215 -254.301 479.01 -275.931C453.383 -293.211 421.958 -307.384 386.61 -315.854L377.767 -317.879C376.305 -318.239 374.798 -318.514 373.298 -318.799L368.798 -319.662L364.305 -320.525C363.555 -320.661 362.813 -320.829 362.055 -320.941L359.775 -321.3C305.078 -330.125 247.785 -330.414 191.798 -326.909C129.218 -323.017 67.2526 -314.729 6.20261 -305.447C-5.66989 -303.688 -18.8324 -301.406 -30.5174 -299.661C5.34763 -306.88 42.1725 -313.479 78.9001 -318.92C109.313 -323.423 141.165 -327.348 172.163 -329.915C240.9 -335.762 313.778 -336.747 378.833 -319.639C384.638 -318.029 390.495 -316.517 396.113 -314.673C398.723 -313.829 402.098 -312.872 404.543 -311.948C408.645 -310.455 412.883 -309.125 416.865 -307.519C418.898 -306.745 422.873 -305.158 424.898 -304.383C430.913 -301.826 438.338 -298.634 444.135 -295.797C453.945 -291.074 463.8 -285.731 472.785 -280.397C500.318 -264.143 524.94 -245.966 547.68 -227.094C576.09 -203.551 601.673 -178.738 629.963 -155.157C654.338 -134.68 681.323 -115.304 711.653 -98.1493C737.31 -83.6407 764.58 -70.406 792.293 -57.5167C799.238 -54.32 808.028 -50.2414 815.213 -47.208C861.465 -26.9407 911.093 -9.37533 961.41 6.67334L961.433 6.67334Z" fill="#ECE3D8"/>
</g>
<g opacity="0.18">
<path d="M954.435 1.71289C940.238 -2.18844 925.32 -6.56578 911.423 -10.9478C903.743 -13.2438 889.658 -18.1625 882.008 -20.7245C876.18 -22.8665 867.323 -26.0818 861.45 -28.2331C857.078 -29.8898 849.788 -32.7831 845.295 -34.5471C836.04 -38.2198 822.593 -43.8478 813.72 -47.8938C809.025 -50.0311 802.793 -52.7798 798.353 -54.9451C744.548 -79.7345 700.545 -111.5 658.41 -143.574C650.498 -149.664 642.413 -155.974 634.748 -162.138C629.19 -166.609 622.958 -171.733 617.49 -176.311C585.128 -203.126 556.898 -231.714 526.553 -259.345C513.188 -271.422 498.6 -283.327 481.965 -293.757C478.163 -296.259 473.985 -298.55 469.95 -300.907C468.383 -301.756 466.005 -302.974 464.52 -303.776C457.868 -307.416 449.1 -311.337 441.698 -314.384C420.69 -323.059 396.998 -329.382 372.683 -333.41L363.518 -334.829C357.848 -335.743 350.73 -336.411 345.03 -337.157C263.85 -345.263 181.043 -338.594 101.033 -328.598C67.5677 -324.384 32.3626 -319.209 -0.697354 -313.894C-9.57736 -312.447 -20.0623 -310.716 -28.2973 -309.418C-19.2448 -311.215 -5.34726 -314.062 3.40525 -315.732L7.96518 -316.577L26.2052 -319.946C86.8501 -330.969 149.745 -339.864 212.67 -343.779C260.16 -346.523 308.993 -346.752 355.373 -338.968C361.598 -338.034 369.833 -336.345 376.013 -335.127C377.25 -334.829 381.398 -333.881 382.733 -333.559C385.485 -332.873 389.033 -332.159 391.635 -331.403C393.555 -330.922 400.928 -328.869 402.585 -328.449C406.523 -327.264 411.45 -325.672 415.388 -324.482C419.333 -323.092 426.083 -320.847 429.84 -319.326C432.345 -318.304 435.443 -317.137 437.903 -316.181C440.348 -315.247 447.09 -312.195 449.648 -311.145C454.23 -308.956 460.305 -306.124 464.61 -303.851C465.953 -303.137 468.848 -301.695 470.108 -301.028C499.35 -285.082 525.21 -266.728 548.205 -247.193C584.438 -216.584 615.308 -182.112 651.488 -151.475C671.235 -134.88 692.76 -118.967 716.76 -104.692C743.91 -88.3304 773.123 -73.1078 802.785 -58.5571C850.148 -35.6765 901.688 -15.9831 954.45 1.69421L954.435 1.71289Z" fill="#ECE3D8"/>
</g>
<path d="M-49.6038 175.952C8.23624 185.696 66.6011 194.997 126.346 198.646C143.341 199.654 160.456 200.06 177.526 199.696C220.449 198.852 262.074 191.903 304.209 187.358C354.961 181.804 406.516 179.527 458.004 179.345C475.141 179.289 492.384 179.401 509.499 179.704C560.979 180.498 612.211 183.881 663.586 185.668C723.496 187.791 783.511 189.098 843.526 188.524C954.991 187.605 1066.07 179.391 1176.66 171.257C1261.88 165.191 1346.84 157.215 1432.52 153.991C1471.04 152.721 1510.06 152.269 1548.12 156.753C1560.75 158.293 1573.22 160.515 1584.99 163.777C1577.08 161.714 1568.87 160.113 1560.55 158.872C1535.52 155.153 1509.67 154.285 1484.02 154.299C1381.07 155.311 1279.29 166.479 1177.12 173.628C1074.93 181.473 972.121 185.892 869.251 188.23C800.844 189.719 731.701 190.47 663.361 188.193C594.886 185.962 526.666 180.134 458.004 180.171C406.584 179.877 355.059 182.36 304.651 188.823C262.591 194.096 220.839 201.4 177.646 201.927C151.809 202.394 125.971 201.036 100.434 198.67C49.4938 193.742 -0.381252 185.356 -49.5963 175.948L-49.6038 175.952Z" fill="#ECE3D8"/>
<g opacity="0.95">
<path d="M-30.7264 174.762C24.4661 183.68 80.761 192.066 137.611 195.356C140.889 195.496 147.031 195.776 150.271 195.916C153.976 196.154 165.271 196.313 169.284 196.406C194.626 196.663 220.036 195.216 244.966 192.426C270.039 189.672 294.826 186.079 319.928 183.293C370.118 177.581 421.149 175.201 472.104 174.711C503.709 174.426 536.071 174.916 567.669 175.835C684.084 180.567 800.889 184.273 917.521 180.306C1038.13 176.213 1164.46 164.841 1284.71 155.988C1352.14 150.995 1419.85 145.684 1487.89 145.992C1504.86 146.146 1521.95 146.781 1538.77 148.227C1555.51 149.665 1572.38 152.059 1588.1 155.979C1564.21 150.449 1538.63 148.363 1513.31 147.518C1470.92 146.323 1428.51 148.288 1386.32 150.878C1288.91 156.982 1180.25 167.496 1082.71 172.909C1015.05 176.806 947.236 179.545 879.369 181.487C811.479 183.433 743.454 184.431 675.534 182.383C626.686 181.113 571.914 177.086 523.036 176.041C497.716 175.327 471.991 175.233 446.671 175.719C439.734 175.84 428.184 176.106 421.239 176.456C387.504 177.684 353.529 180.74 320.446 184.931C270.661 191.586 220.614 199.724 169.231 198.516L156.451 198.208C154.321 198.18 152.199 198.044 150.076 197.946L143.701 197.638C118.554 196.411 92.6935 193.709 68.026 190.498C35.2135 186.345 1.44856 180.61 -30.7189 174.767L-30.7264 174.762Z" fill="#ECE3D8"/>
</g>
<g opacity="0.9">
<path d="M-11.8496 173.572C71.0854 186.126 157.328 198.488 242.911 190.475C290.618 185.776 337.478 177.908 385.546 174.473C418.808 171.972 452.671 170.483 486.188 170.016C489.871 169.96 495.188 169.844 498.803 169.853C519.39 169.788 541.358 169.75 561.886 170.198C599.671 170.847 637.478 172.686 675.233 173.642C729.743 175.047 784.441 175.798 839.011 175.332C1040.21 174.338 1240.88 147.495 1441.29 139.468C1491.43 138.157 1543.28 137.713 1591.21 148.181C1559.24 141.559 1525.25 140.061 1491.77 139.991C1390.85 140.611 1291.02 151.214 1190.96 158.56C1115.88 164.435 1040.47 168.7 964.966 171.836C914.813 173.922 864.031 175.705 813.833 176.671C759.203 177.758 704.415 177.478 649.845 175.355C626.228 174.478 585.256 172.289 561.796 171.682C536.881 170.88 511.171 170.455 486.211 170.744C418.658 170.707 352.418 177.926 286.943 187.74C254.07 192.328 220.403 195.361 186.623 195.207C165.548 195.03 144.466 194.096 123.601 192.206L117.338 191.67L114.211 191.404L111.098 191.077L98.6405 189.766L92.4155 189.108L86.2205 188.347C53.648 184.534 20.0929 179.14 -11.8571 173.572L-11.8496 173.572Z" fill="#ECE3D8"/>
</g>
<g opacity="0.86">
<path d="M7.02087 172.382C75.4734 182.275 145.748 191.436 216.368 189.476C245.356 188.594 274.088 185.379 302.423 181.613C335.881 177.137 369.773 172.793 403.786 170.086C439.748 167.253 476.491 165.634 512.731 165.083C558.466 164.43 604.418 165.359 650.056 166.908C695.708 168.233 741.488 168.873 787.201 169.022C874.576 169.447 961.966 166.245 1048.75 159.997C1144.26 153.225 1250.8 143.957 1346.11 137.331C1399.91 133.793 1454.03 130.671 1508.18 131.88C1524.7 132.295 1541.6 133.187 1557.92 134.895C1570.13 136.127 1582.56 137.984 1594.31 140.378C1584.54 138.521 1574.06 137.06 1563.95 135.996C1547.63 134.241 1530.9 133.415 1514.36 133.014C1408.18 131.689 1303.04 143.248 1197.88 150.99C1107.12 158.214 1015.74 163.175 924.428 166.852C847.621 169.909 770.513 172.242 693.541 170.548C647.828 169.703 595.898 166.502 550.186 166.049C487.913 165.06 425.146 167.454 364.103 175.406C319.231 181.015 274.936 189.177 229.051 191.142C214.868 191.828 199.426 191.959 185.213 191.73C124.913 190.372 65.1611 182.023 7.02856 172.377L7.02087 172.382Z" fill="#ECE3D8"/>
</g>
<g opacity="0.81">
<path d="M25.8981 171.192C58.6131 175.733 92.918 179.938 126.015 182.854C133.103 183.382 140.408 183.974 147.443 184.478C152.265 184.74 161.385 185.281 165.863 185.524C169.493 185.659 180.405 186.074 184.313 186.228C215.04 187.073 245.978 186.042 276.293 182.831C286.14 181.772 296.813 180.568 306.563 179.275C342.698 174.529 379.178 169.372 415.823 166.25C448.193 163.418 481.62 161.551 514.29 160.674C563.655 159.241 613.283 159.964 662.603 161.336C711.968 162.456 761.34 162.848 810.743 162.615C843.578 162.428 876.72 161.882 909.533 160.776C1055.99 155.713 1205.75 139.51 1351.52 129.869C1425.07 125.38 1500.15 120.55 1573.43 128.884C1581.52 129.888 1589.51 131.138 1597.42 132.58C1581.51 129.902 1565.24 128.17 1548.87 127.134C1433.83 121.441 1318.79 135.212 1204.79 143.426C1106.73 151.317 1008.19 156.819 909.548 160.93C827.37 164.491 744.758 166.451 662.438 163.716C619.028 162.102 569.873 160.482 526.68 161.14C481.493 161.826 436.095 164.346 391.755 169.914C351.255 174.688 311.625 181.996 270.758 185.701C188.685 193.62 105.436 183.764 25.8981 171.192V171.192Z" fill="#ECE3D8"/>
</g>
<g opacity="0.76">
<path d="M44.7755 170.002C108.293 178.141 173.468 185.029 238.501 182.91C270.818 181.977 303.286 178.099 334.823 173.792C378.481 167.72 422.761 162.139 467.348 159.218C507.728 156.31 548.851 155.106 589.486 154.845C638.401 154.574 687.331 156.352 736.231 156.408C801.256 156.646 866.888 156.147 931.763 153.375C1089.06 146.603 1248.63 127.764 1405.7 119.597C1470.51 116.695 1537.07 114.478 1600.54 124.791L1594.58 123.937C1588.98 123.139 1582.3 122.365 1576.57 121.791C1568.72 120.997 1560.27 120.311 1552.34 119.854C1503.62 117.059 1454.6 118.795 1405.95 121.436C1308.53 126.901 1211.81 136.682 1114.52 143.075C1041.53 147.966 968.393 151.928 895.171 155.111C846.346 157.276 797.416 158.872 748.456 158.966C724.148 159.045 699.301 158.728 675.008 158.14C646.261 157.286 605.641 156.035 577.261 156.128C548.926 156.007 520.021 156.772 491.776 158.219C459.616 159.964 426.728 163.184 395.191 167.459C351.353 173.316 307.943 181.104 263.168 183.909C189.796 188.683 115.951 180.647 44.7755 170.007L44.7755 170.002Z" fill="#ECE3D8"/>
</g>
<g opacity="0.71">
<path d="M63.6532 168.812C82.6132 171.02 104.461 173.568 123.301 175.173C148.861 177.539 175.643 179.331 201.458 179.91C227.573 180.549 253.801 180.026 279.743 178.043C295.531 176.802 311.806 175.028 327.331 173.026C366.533 167.944 406.441 161.836 446.018 158.093C493.861 153.338 542.311 150.832 590.716 150.006C622.433 149.366 655.973 149.74 687.623 150.16C744.061 150.692 800.573 150.398 856.988 149.226C1038.82 145.871 1217.63 122.668 1398.55 112.836C1466.72 109.56 1536.55 107.1 1603.64 116.98C1600.85 116.634 1597.22 116.149 1594.74 115.836C1593.18 115.659 1587.52 115.043 1585.8 114.852C1575.83 113.872 1565.82 113.074 1555.79 112.523C1442.87 107.492 1330.38 119.747 1218.57 128.24C1146.54 134.172 1074.27 139.034 1001.92 143.132C954.196 145.857 904.801 148.484 857.078 150.426C808.733 152.372 760.208 153.37 711.758 152.871C679.201 152.605 635.378 151.018 602.843 151.135C572.731 151.032 542.191 151.872 512.191 153.45C503.011 154.019 491.251 154.761 482.123 155.545C431.986 159.362 383.236 167.748 334.021 174.552C320.273 176.391 306.128 178.006 292.208 179.252C215.903 186.317 138.241 179.345 63.6382 168.803L63.6532 168.812Z" fill="#ECE3D8"/>
</g>
<g opacity="0.67">
<path d="M82.5309 167.622C143.288 174.347 205.238 179.098 266.978 176.298C316.583 174.212 365.423 165.863 413.941 159.582C445.163 155.438 476.881 152.213 508.561 149.763C521.888 148.811 536.971 147.794 550.306 147.075C572.078 146.025 594.308 145.222 616.163 144.802C651.766 144.014 688.501 144.667 724.043 144.574C795.878 144.382 867.841 143.286 939.496 139.935C1067.02 133.761 1193.08 119.747 1320.11 110.81C1383.62 106.19 1447.46 102.284 1511.48 102.868C1543.45 103.278 1575.5 104.888 1606.76 109.191C1575.38 105.406 1543.38 104.072 1511.46 104.039C1415.57 104.17 1320.4 113.027 1225.47 120.643C1154.19 126.57 1082.69 131.54 1011.11 135.88C923.753 141.083 835.831 146.59 748.036 147.066C702.218 147.537 650.086 145.521 604.238 146.235C540.338 146.818 476.611 151.746 414.526 161.206C385.381 165.457 356.303 170.278 326.821 173.633C289.463 178.024 251.138 179.77 213.143 178.766L201.151 178.332L195.158 178.113C187.141 177.679 184.163 177.497 177.218 177.119C169.426 176.62 161.161 175.976 153.376 175.392C130.343 173.437 105.323 170.581 82.5309 167.618L82.5309 167.622Z" fill="#ECE3D8"/>
</g>
<g opacity="0.62">
<path d="M101.4 166.432C163.658 172.69 227.145 176.536 290.078 172.49C337.02 169.638 383.445 161.71 429.518 155.662C468.143 150.44 507.353 146.487 546.615 143.706C559.74 142.782 574.83 141.946 587.978 141.302C597.638 140.966 607.92 140.42 617.595 140.154C644.363 139.137 685.335 138.978 712.523 138.908C807.33 138.358 902.31 136.36 996.638 130.079C1138.1 120.452 1278.51 104.156 1420.52 97.5895C1467.83 95.5502 1515.58 94.5142 1562.87 97.2628C1578.8 98.0562 1594.22 99.6102 1609.86 101.388L1598.13 100.287C1578.83 98.4808 1558.66 97.4915 1539.12 97.1042C1436.28 95.3589 1334.09 104.851 1232.33 113.032C1134.36 121.236 1036.01 127.788 937.62 133.78C870.818 137.821 803.438 141.13 736.268 141.312C712.658 141.414 688.635 141.106 665.078 140.92C649.05 140.91 627.653 141.083 611.745 141.414C604.08 141.634 595.725 141.867 588.06 142.133C574.95 142.702 559.8 143.454 546.713 144.294C515.46 146.3 483.87 149.702 453.203 153.949C399.188 161.49 345.78 171.538 290.415 174.58C227.318 178.468 163.418 173.876 101.4 166.428L101.4 166.432Z" fill="#ECE3D8"/>
</g>
<g opacity="0.57">
<path d="M120.278 165.242C181.936 170.702 245.236 173.605 307.201 168.971C345.646 166.236 384.398 160.3 422.138 154.929C452.611 150.593 483.428 146.571 514.306 143.495C535.216 141.344 557.206 139.519 578.318 138.054C601.486 136.523 625.336 135.408 648.593 134.615C677.768 133.602 719.183 133.499 748.381 132.986C818.701 131.735 889.231 129.841 959.288 125.841C1091.8 118.043 1222.84 102.601 1355.26 94.1732C1417.52 90.1039 1480.31 87.1219 1542.93 88.9232C1552.74 89.1192 1562.46 89.7306 1572.24 90.1646L1578.08 90.5706L1589.76 91.3965L1592.68 91.6065C1593.65 91.6812 1594.61 91.7932 1595.58 91.8819L1601.39 92.4512L1612.99 93.5899C1608.03 93.1652 1600.03 92.5305 1595.53 92.1525C1589.05 91.6439 1578.71 91.1399 1572.17 90.7245C1562.45 90.3885 1552.61 89.9172 1542.89 89.8192C1409.64 87.9572 1277.91 103.292 1146.02 112.854C1056.84 119.509 966.961 125.846 877.516 131.059C811.246 134.899 744.518 136.099 678.023 135.665C670.493 135.753 650.266 135.912 642.841 136.15C619.598 136.598 595.733 137.583 572.618 139.132C529.831 141.741 487.396 146.963 445.696 153.375C422.903 156.828 400.141 160.575 377.206 163.702C346.666 167.958 315.406 171.08 284.138 172.349C229.396 174.599 174.173 171.187 120.301 165.242L120.278 165.242Z" fill="#ECE3D8"/>
</g>
<g opacity="0.52">
<path d="M139.156 164.052C184.996 167.51 231.991 169.606 278.116 168.098C316.749 166.955 354.991 163.053 392.664 157.677C405.114 155.96 425.244 153.02 437.941 151.2C479.439 145.217 521.326 139.902 563.506 136.155C590.199 133.621 617.491 131.875 644.371 130.466C698.184 127.736 753.046 127.843 806.904 125.991C844.854 124.857 884.994 123.41 922.839 121.52C1061.98 114.856 1199.13 97.7527 1337.79 88.4007C1415.7 82.922 1494.42 78.89 1572.8 82.6L1574.24 82.6607L1575.69 82.7493L1581.48 83.1087L1593.05 83.832C1594.01 83.8974 1594.98 83.944 1595.94 84.028L1598.82 84.28L1604.58 84.784L1616.09 85.792C1611.14 85.4234 1603.27 84.882 1598.78 84.5507C1595.64 84.28 1584.91 83.7947 1581.42 83.608L1575.63 83.314L1574.18 83.2393L1572.74 83.1974C1432.16 78.7267 1292.9 95.088 1153.84 105.457C1094.93 110.012 1027.97 114.959 969.174 119.093C911.626 123.2 853.404 127.148 795.511 128.893C745.029 130.685 689.176 129.701 638.716 131.852C605.986 133.187 573.024 135.492 540.691 138.941C491.026 144.167 442.561 153.011 393.496 159.969C363.331 164.215 332.371 167.519 301.524 169.073C247.569 171.929 192.579 169.227 139.164 164.052L139.156 164.052Z" fill="#ECE3D8"/>
</g>
<g opacity="0.48">
<path d="M158.033 162.862C197.895 165.331 238.53 166.721 278.498 165.625C299.513 164.981 320.483 163.819 341.295 161.952C401.97 156.287 460.905 145.334 521.138 138.157C580.853 130.737 642.765 125.641 703.628 123.419C764.543 121.679 826.455 119.831 887.288 116.947C928.763 115.029 971.918 112.513 1013.21 109.345C1093.02 103.259 1172.64 94.6119 1252.31 87.9433C1354.87 79.6833 1458.3 71.3532 1561.93 74.6292L1573.42 75.0399L1576.29 75.1472L1579.16 75.3059L1584.89 75.6186L1596.35 76.2486C1598.27 76.3372 1600.16 76.5239 1602.07 76.6592L1607.78 77.1025L1619.19 77.9892C1614.33 77.6812 1606.43 77.2099 1602.02 76.9299C1595.7 76.5052 1585.49 76.1786 1579.1 75.8752C1575.95 75.7026 1565.35 75.4972 1561.87 75.4039C1427.52 72.8933 1294.49 87.5653 1161.6 97.8366C1076.39 104.491 978.668 112.252 893.243 118.207C845.558 121.371 797.685 123.615 749.738 124.441C714.368 124.927 669.938 125.804 634.943 127.955C608.925 129.612 580.92 131.861 555.24 134.806C528.938 137.849 502.643 141.661 476.723 145.745C447.038 150.43 417.248 155.358 387.21 159.152C351.443 163.683 315.105 166.712 278.595 167.342C238.35 168.037 197.888 166.236 158.025 162.857L158.033 162.862Z" fill="#ECE3D8"/>
</g>
<g opacity="0.43">
<path d="M176.904 161.667C190.584 162.279 208.981 163.049 222.354 163.291C237.091 163.548 253.141 163.716 267.834 163.455C271.374 163.399 275.784 163.371 279.196 163.245C283.974 163.081 291.826 162.904 296.214 162.68C316.831 161.807 337.876 160.37 358.269 158.359C433.066 150.444 505.921 136.575 580.831 128.875C632.664 123.069 686.544 119.154 739.149 117.278C822.256 114.231 905.911 110.511 988.651 104.645C1048.82 100.282 1109.11 94.3367 1168.95 88.5454C1296.4 76.72 1424.98 64.8247 1554.18 66.9153C1575.06 67.3867 1601.47 68.5673 1622.3 70.1867C1601.07 68.922 1575.44 68.0493 1554.14 67.8207C1424.98 66.7893 1297.07 79.9587 1169.33 90.1927C1103.83 95.4474 1008.65 103.175 943.509 108.444C931.149 109.461 910.884 110.945 898.291 111.883C853.036 115.159 807.586 117.591 762.061 118.799C686.686 120.153 609.841 124.297 536.401 135.123C499.396 140.383 462.894 146.874 425.934 152.245C400.096 156.007 373.786 159.231 347.484 161.429C335.581 162.475 322.591 163.263 310.606 163.875C304.426 164.08 296.874 164.43 290.671 164.551L279.271 164.775L276.421 164.831L273.571 164.845L267.871 164.864C258.789 164.962 248.401 164.766 239.371 164.654C233.619 164.491 225.061 164.201 219.451 164.029C205.659 163.441 190.651 162.615 176.911 161.658L176.904 161.667Z" fill="#ECE3D8"/>
</g>
<g opacity="0.38">
<path d="M195.781 160.478C227.288 161.518 260.018 161.775 291.436 160.72C307.921 160.142 325.426 159.096 341.821 157.86C412.681 152.334 481.156 139.184 550.981 130.256C572.821 127.382 595.343 124.628 617.371 122.23C661.778 117.39 706.658 113.932 751.613 111.846C792.421 109.97 834.323 107.852 875.063 105.499C930.901 102.335 987.488 98.6628 1042.98 93.6881C1213.69 78.2181 1384.68 57.1528 1557.94 59.5561C1577.76 59.9201 1605.62 61.0168 1625.41 62.3841C1605.31 61.3621 1578.05 60.5968 1557.91 60.4614C1460.25 59.9854 1362.99 66.9341 1266.35 75.0728C1192.56 81.3215 1116.92 87.4068 1042.99 93.7255C954.271 101.29 863.693 110.101 774.331 113.157C736.861 114.422 699.338 115.808 662.101 118.73C609.908 122.706 558.383 129.57 507.608 137.989C456.773 146.366 405.623 154.626 353.401 158.9C301.306 163.324 248.086 163.399 195.781 160.473L195.781 160.478Z" fill="#ECE3D8"/>
</g>
<g opacity="0.33">
<path d="M214.658 159.288C259.051 160.025 304.013 159.157 348.053 155.433C392.243 152.031 435.773 145.605 478.966 139.006C522.226 132.417 565.816 126.033 609.533 120.638C645.878 116.079 682.831 112.304 719.633 109.406C748.981 107.096 778.981 105.635 808.433 103.848C859.763 100.754 912.391 97.389 963.646 93.6184C1064.5 86.5063 1171.93 73.463 1272.55 65.0537C1331.3 60.275 1390.97 55.9116 1450.14 53.7136C1492.81 52.127 1535.71 51.4643 1578.44 52.533C1595.67 52.925 1611.76 53.6996 1628.53 54.6003L1606.26 53.8163C1591.82 53.4196 1576.22 53.163 1561.69 53.107C1465.04 52.883 1368.74 59.4117 1273.07 67.4477C1184.69 74.891 1096.19 82.129 1007.96 90.3144C934.606 97.1977 860.581 104.174 786.578 107.52C753.331 109.009 719.761 110.554 686.701 113.265C616.471 118.524 548.056 129.869 479.858 141.204C451.178 145.792 421.816 149.968 392.648 153.212C334.111 159.885 274.028 161.719 214.666 159.292L214.658 159.288Z" fill="#ECE3D8"/>
</g>
<g opacity="0.29">
<path d="M233.536 158.097L244.576 158.027L250.096 157.999L252.856 157.99L255.616 157.943C259.974 157.873 268.126 157.729 272.161 157.654C289.351 157.183 307.336 156.45 324.414 155.428C356.326 153.389 388.224 150.22 419.634 146.146C459.196 140.933 498.331 134.451 537.676 128.66C605.671 118.561 674.176 109.312 743.506 103.525C765.121 101.705 787.644 100.207 809.319 98.7514C877.674 93.8327 949.269 88.8114 1017.44 82.838C1045.64 80.3274 1076.52 77.3127 1104.71 74.452C1249.72 59.1967 1395.96 44.9353 1543.37 44.66C1565.4 44.66 1587.62 45.0893 1609.61 45.8313L1631.63 46.7926C1617.44 46.3913 1601.2 45.9666 1587.51 45.822C1419.01 44.2773 1249.45 62.6313 1082.93 76.762C1062.74 78.6427 1037.61 81.0274 1017.46 82.9874C952.306 89.4274 886.306 96.3061 820.711 100.487C786.084 102.746 750.939 104.319 716.439 107.207C685.554 109.746 654.504 113.073 624.031 117.11C544.869 127.764 467.821 144.009 387.699 151.998C336.879 157.295 285.031 159.259 233.536 158.097V158.097Z" fill="#ECE3D8"/>
</g>
<g opacity="0.24">
<path d="M252.406 156.907C303.278 155.969 354.173 152.507 404.146 146.538C468.481 138.81 531.571 127.489 595.478 118.529C659.303 109.256 723.676 100.87 788.708 95.606C875.851 88.354 972.526 80.9153 1059.25 72.3333C1134.68 64.8526 1210.11 55.9439 1285.87 49.7793C1383.32 41.8926 1481.79 36.1572 1580.15 37.4966L1585.61 37.5572L1591.07 37.6786L1602 37.9166C1617.21 38.2292 1621.55 38.5559 1634.74 38.9899C1625.36 38.8359 1610.62 38.4439 1601.97 38.4159C1595.22 38.3599 1586.65 38.2339 1580.13 38.2619C1452.56 37.9726 1325.89 48.5239 1199.78 59.4299C1156.91 63.1259 1112.85 67.0273 1070.05 71.2693C998.851 78.148 925.658 86.982 854.236 92.8293C800.108 97.3233 745.568 100.044 691.846 106.316C663.278 109.564 634.591 113.349 606.428 117.759C544.643 127.568 483.533 139.029 420.863 146.594C365.521 153.491 308.858 157.122 252.406 156.898L252.406 156.907Z" fill="#ECE3D8"/>
</g>
<g opacity="0.19">
<path d="M271.284 155.718C317.881 153.842 364.674 150.043 410.469 144.336C463.539 137.947 515.656 128.884 568.171 120.984C638.236 110.381 708.444 99.8155 779.581 92.3582C871.336 83.1089 965.806 75.2315 1057.55 65.8888C1077.43 63.8542 1101.63 61.2828 1121.54 59.1408C1270.5 42.4948 1421.3 29.3348 1572.96 29.9555C1587.23 30.0068 1601.98 30.2308 1616.23 30.5621L1637.84 31.2014C1628.45 31.1081 1614.03 30.8375 1605.41 30.8421C1591.28 30.7395 1576.25 30.8141 1562.16 30.9308C1399.92 32.9235 1239.03 48.3748 1078.91 63.7142C1038.34 67.7975 991.779 73.2108 951.084 77.7795C908.506 82.6095 865.779 86.9262 822.886 90.5335C787.171 93.4409 751.434 96.5209 716.041 100.702C684.211 104.468 652.456 108.832 621.069 113.867C554.829 124.754 489.039 136.897 421.704 145.003C372.226 151.074 321.706 154.859 271.284 155.722L271.284 155.718Z" fill="#ECE3D8"/>
</g>
<g opacity="0.14">
<path d="M290.16 154.528C346.883 150.874 403.29 144.62 458.745 136.482C482.093 133.136 518.168 127.288 541.785 123.55C581.16 117.255 626.76 110.4 666.548 104.403C704.243 98.7516 743.49 93.1983 781.56 88.4989C875.828 77.3363 971.903 68.2129 1066.54 58.1982C1129.21 51.5109 1193.75 43.8669 1256.57 38.0709C1366.07 28.2802 1476.73 21.9475 1587.44 22.5168C1597.75 22.6148 1609.27 22.7082 1619.56 22.9088L1640.96 23.4035C1631.96 23.3755 1617.14 23.2075 1608.84 23.2449C1598.73 23.2635 1586.8 23.2449 1576.73 23.4035C1484.03 24.3275 1391.42 29.3722 1299.51 36.8109C1207.58 44.1889 1115.51 52.1549 1024.43 63.0516C976.485 68.8056 925.103 75.3016 877.14 80.4489C792.998 89.0169 707.475 97.1556 625.305 111.613C583.958 118.515 542.828 126.094 501.211 132.384C477.661 136.034 451.853 139.725 428.078 142.758C396.616 146.739 364.756 149.95 332.836 152.148C319.156 153.216 303.593 153.8 290.168 154.532L290.16 154.528Z" fill="#ECE3D8"/>
</g>
<g opacity="0.1">
<path d="M309.038 153.338C378.751 147.117 448.193 137.485 516.316 126.378C579.458 116.023 657.983 104.034 721.868 94.0801C829.973 77.4574 944.596 64.8108 1054.58 52.9901C1161.06 40.9174 1271.64 27.8274 1379.3 21.672C1412 19.7167 1452.34 17.7614 1485.05 16.6554C1500.55 16.2727 1522.57 15.7454 1538.05 15.372C1552.79 15.246 1576.23 15.0641 1591.07 14.9987C1602.56 15.1061 1612.5 15.232 1622.87 15.33L1644.07 15.5961C1633.41 15.6381 1612.3 15.736 1601.67 15.7407C1590.29 15.6707 1570.94 16.1654 1559.3 16.3614C1548.63 16.4594 1527.57 16.9914 1516.95 17.3927C1473.07 18.6294 1423.52 21.2194 1379.65 23.8747C1341.71 26.4274 1301.77 29.4327 1263.98 32.6341C1208.87 37.1654 1150.94 42.2381 1096.31 48.3468C1013.33 57.4094 929.656 69.8601 846.773 79.1701C777.661 86.8188 707.498 95.9888 639.953 107.777C605.881 113.587 571.958 119.775 537.766 125.323C511.366 129.612 481.966 134.129 455.341 137.858C407.363 144.69 357.968 150.029 309.023 153.333L309.038 153.338Z" fill="#ECE3D8"/>
</g>
<g opacity="0.05">
<path d="M327.908 152.148C410.273 142.576 491.903 129.37 572.828 115.972C633.143 106.368 695.603 96.4744 755.821 86.7444C803.078 79.0724 851.071 71.9651 898.771 65.5157C973.366 55.3471 1050.49 47.1617 1125.5 38.253C1179.41 32.0744 1236.76 25.4337 1291.14 20.963C1310.33 19.3624 1334.42 17.4957 1353.7 16.2917C1364.75 15.5357 1384.27 14.215 1395.5 13.669C1403.27 13.249 1423.97 12.087 1432.11 11.6483C1451.29 10.855 1470.56 9.95902 1489.75 9.35235C1541.9 7.69568 1595 7.1683 1647.18 7.7983C1631.8 7.9523 1609.97 8.15296 1594.71 8.25563C1588.62 8.31163 1569.83 8.811 1563.26 8.937C1554.71 9.119 1539.77 9.36165 1531.81 9.67432C1437.59 12.4043 1343.45 18.667 1250.04 26.7217C1202.75 30.595 1151.66 35.3177 1104.88 40.7077C1036.06 48.3657 967.981 58.861 899.656 68.0357C860.806 73.3464 815.348 79.0817 776.596 84.6164C735.938 90.4544 694.741 96.9318 654.586 103.983C601.726 113.368 545.828 123.219 492.466 131.255C438.616 139.613 382.808 146.991 327.916 152.152L327.908 152.148Z" fill="#ECE3D8"/>
</g>
<path d="M-49.6047 175.952C8.23526 185.696 66.6002 194.997 126.345 198.646C143.34 199.654 160.455 200.06 177.525 199.696C220.448 198.852 262.073 191.903 304.208 187.358C354.96 181.804 406.515 179.527 458.003 179.345C475.14 179.289 492.383 179.401 509.498 179.704C560.978 180.498 612.21 183.881 663.585 185.668C723.495 187.791 783.51 189.098 843.525 188.524C954.99 187.605 1066.07 179.391 1176.66 171.257C1261.88 165.191 1346.84 157.215 1432.52 153.991C1471.04 152.721 1510.06 152.269 1548.12 156.753C1560.75 158.293 1573.22 160.515 1584.99 163.777C1577.08 161.714 1568.87 160.113 1560.55 158.872C1535.52 155.153 1509.67 154.285 1484.02 154.299C1381.07 155.311 1279.29 166.479 1177.12 173.628C1074.93 181.473 972.12 185.892 869.25 188.23C800.843 189.719 731.7 190.47 663.36 188.193C594.885 185.962 526.665 180.134 458.003 180.171C406.583 179.877 355.058 182.36 304.65 188.823C262.59 194.096 220.838 201.4 177.645 201.927C151.808 202.394 125.97 201.036 100.433 198.67C49.4928 193.742 -0.382228 185.356 -49.5972 175.948L-49.6047 175.952Z" fill="#ECE3D8"/>
<g opacity="0.93">
<path d="M-52.0944 175.747C-2.55692 184.418 47.8805 192.771 98.783 197.452C134.866 200.751 171.586 201.829 207.773 198.651C222.691 197.41 237.451 195.664 252.211 193.849C298.598 187.824 345.743 183.466 393.173 182.383C469.793 179.895 549.121 183.806 625.583 187.605C689.926 190.311 754.673 191.917 819.166 191.898C972.473 192.155 1130.07 177.548 1282.34 166.623C1350.81 161.695 1419.53 156.357 1488.58 156.907C1513.35 157.299 1538.3 158.513 1562.34 162.419C1571.66 163.991 1580.96 165.97 1589.66 168.597C1580.87 166.091 1571.55 164.262 1562.18 162.806C1538.12 159.166 1513.25 158.219 1488.56 158.083C1419.62 158.009 1351.13 163.837 1282.77 168.803C1178.36 177.151 1065.74 185.248 961.231 188.748C901.043 190.965 840.698 192.677 780.398 193.158C733.088 193.499 685.388 192.789 638.191 190.661C604.568 189.285 568.831 186.522 535.186 184.926C488.348 182.551 440.176 181.417 393.226 182.976C363.353 183.918 332.956 186.247 303.548 189.635C269.603 193.438 236.213 199.085 201.811 201.428C167.371 203.929 132.503 202.576 98.333 199.328C47.453 194.19 -2.95441 185.388 -52.0869 175.742L-52.0944 175.747Z" fill="#ECE3D8"/>
</g>
<g opacity="0.86">
<path d="M-54.5769 175.542C-19.5669 181.954 16.5756 188.128 52.0881 193.023C61.9881 194.255 74.0031 195.865 83.9106 196.836C86.7156 197.144 90.9606 197.582 93.4881 197.858C99.7506 198.352 109.771 199.374 115.943 199.724C143.723 201.731 171.976 202.002 199.733 199.78C212.566 198.74 225.331 197.405 238.043 195.884C280.471 190.564 323.401 186.06 366.698 184.814C414.158 183.106 462.091 183.774 509.536 185.458C543.061 186.625 579.706 188.935 613.111 190.512C682.103 193.681 751.343 195.389 820.538 195.291C1027.77 195.58 1234.71 168.574 1441.16 161.033C1482.71 160.043 1525.07 159.927 1565.58 166.507C1575.42 168.275 1585.25 170.445 1594.33 173.418C1585.62 170.725 1576.33 168.756 1566.97 167.183C1526 160.711 1483.19 161.373 1441.27 162.549C1361.21 165.405 1263.66 173.838 1183.17 179.723C1114.39 184.819 1045.34 188.669 976.216 191.427C859.613 195.902 742.396 199.524 625.756 193.56C587.363 191.698 547.883 188.412 509.408 186.625C440.476 183.312 370.726 183.088 302.431 190.428C276.833 193.079 251.536 196.794 225.968 199.659C198.181 202.837 169.763 204.242 141.548 203.15L135.046 202.865L128.543 202.58L122.063 202.142C113.318 201.619 104.633 200.802 96.2406 200.014L93.0231 199.71L89.8206 199.337C41.0331 193.961 -7.46939 185.094 -54.5619 175.551L-54.5769 175.542Z" fill="#ECE3D8"/>
</g>
<g opacity="0.79">
<path d="M-57.0675 175.336C-11.6475 183.876 35.0401 192.323 81.7426 197.503C90.3076 198.506 98.8876 199.23 107.438 200.028C110.94 200.28 120.675 200.961 123.585 201.166C125.655 201.26 131.175 201.512 133.305 201.61C159.165 202.786 185.333 201.843 210.9 199.202C223.748 197.965 236.565 196.36 249.353 194.885C317.73 186.238 387.833 184.754 457.38 186.592C535.583 188.622 613.298 195.244 691.538 196.957C717.473 197.657 743.767 198.217 769.717 198.487C786.247 198.679 805.358 198.725 821.888 198.679C1029.06 198.669 1238.99 171.267 1445.49 164.556C1487.24 163.749 1529.86 163.8 1570.37 170.856C1580.21 172.746 1590 175.061 1598.98 178.225C1589.89 175.182 1580.08 173.031 1570.19 171.253C1529.63 164.649 1487.19 165.065 1445.6 166.068C1285.06 172.424 1126.08 190.148 965.265 195.118C934.913 196.308 904.433 197.405 874.073 198.212C826.395 199.565 778.275 200.457 730.545 200.083C663.188 199.789 595.68 195.758 528.833 190.764C514.403 189.938 497.813 188.86 483.368 188.295C435.803 186.219 387.623 185.542 340.103 188.389C309.9 190.046 279.75 193.368 250.043 197.102C237.27 198.674 224.363 200.289 211.493 201.526C183.488 204.34 154.793 205.002 126.548 203.336L123.285 203.173L120.03 202.935L107.025 201.964C102.713 201.568 98.4075 201.129 94.095 200.704C84.5025 199.771 77.4 198.735 68.4 197.666C26.1675 191.982 -16.1175 183.928 -57.0675 175.332L-57.0675 175.336Z" fill="#ECE3D8"/>
</g>
<g opacity="0.71">
<path d="M-59.5575 175.131C-35.2725 179.881 -8.57248 184.963 15.8325 189.014C22.545 190.232 34.2076 191.959 41.1901 193.083C44.5051 193.639 50.4976 194.423 53.9401 194.913C57.4051 195.407 61.8525 196.009 65.115 196.471C68.685 196.91 79.335 198.165 82.7775 198.585C87.27 199.103 94.335 199.729 98.9025 200.214C102.69 200.634 114.24 201.451 118.328 201.782L131.333 202.454C134.88 202.65 140.693 202.72 144.36 202.832C179.348 203.677 213.667 199.449 247.935 195.473C284.415 191.24 321.698 188.781 358.815 188.188C377.828 187.913 398.82 187.871 417.833 188.272C446.895 188.603 480.36 190.087 509.468 191.585C534.33 192.836 562.86 194.955 587.753 196.275C609.098 197.456 631.658 198.473 653.048 199.257C740.175 202.361 827.76 203.303 914.948 200.284C1038.74 195.925 1169.71 184.235 1293.01 176.045C1362.51 171.439 1432.37 166.572 1502.37 168.252C1524.11 168.91 1546.22 170.389 1567.31 173.815L1573.63 174.939C1574.15 175.037 1574.69 175.121 1575.2 175.224L1576.76 175.555L1579.86 176.218C1588.11 178.029 1596.16 180.241 1603.64 183.055C1594.18 179.676 1583.87 177.24 1573.43 175.355C1552.47 171.659 1530.53 170.235 1508.83 169.568C1401.74 167.701 1295.49 178.752 1189.25 185.836C1085.08 193.424 980.43 198.436 875.67 201.549C840.908 202.561 805.598 203.373 770.82 203.602C700.86 204.139 630.788 201.927 561.345 196.518C505.02 192.131 448.425 188.454 391.605 188.599C363.57 188.594 334.515 189.681 306.705 191.819C274.388 194.185 241.928 198.763 209.88 202.123C179.61 205.282 148.522 205.907 117.99 203.789L104.94 202.734L101.677 202.468C95.985 201.861 87.9826 201.077 82.2451 200.373L79.0275 199.957L66.1651 198.291L64.56 198.081L62.9626 197.843C56.2426 196.812 47.4001 195.589 40.6426 194.46C7.35758 189.131 -27.0675 182.168 -59.5575 175.135L-59.5575 175.131Z" fill="#ECE3D8"/>
</g>
<g opacity="0.64">
<path d="M-62.0395 174.925C-29.1295 181.641 5.43788 188.286 38.8879 193.592C72.7429 198.781 107.52 203.079 142.44 203.681C148.59 203.705 155.85 203.761 162.075 203.537C168.345 203.406 175.425 203.047 181.658 202.631C203.445 201.157 224.865 198.38 246.533 196.117C281.175 192.355 316.388 190.372 351.533 190.027C381.84 189.705 413.46 190.405 443.73 191.469C498.908 193.443 559.05 198.73 614.205 201.217C701.678 205.179 789.593 206.621 877.26 204.694C1015.46 201.455 1159.07 188.057 1296.61 179.209C1366.46 174.706 1436.7 170.011 1507.01 172.046C1531.11 172.909 1555.4 174.729 1578.47 179.284C1588.87 181.407 1599.11 184.17 1608.32 187.866C1598.98 184.291 1588.7 181.706 1578.26 179.695C1563.64 176.932 1548.31 175.359 1533.14 174.342C1489.46 171.715 1445.48 173.035 1401.8 175.061C1279.28 181.207 1157.6 192.836 1034.99 198.483C930.008 203.406 824.52 207.853 719.205 207.023C649.905 206.533 577.98 201.847 509.19 195.958C496.163 195.081 482.978 194.101 469.905 193.438C439.643 191.795 408.278 190.568 377.888 190.675C325.373 190.391 272.715 194.997 221.25 201.278C211.935 202.356 201.315 203.392 191.903 204.181C184.545 204.755 176.235 205.249 168.84 205.543C167.738 205.604 166.635 205.627 165.533 205.646L162.225 205.716L155.603 205.856C151.185 205.865 146.768 205.809 142.358 205.786C107.115 205.091 72.2929 200.545 38.3254 194.964C4.94288 189.397 -29.4895 182.21 -62.032 174.921L-62.0395 174.925Z" fill="#ECE3D8"/>
</g>
<g opacity="0.57">
<path d="M-64.529 174.715C-35.7965 180.763 -5.27151 186.97 23.821 191.94C63.8335 198.819 105.436 204.489 147.083 204.545C184.636 204.61 221.183 198.735 258.256 195.613C310.786 191.021 364.126 191.217 416.963 193.205C462.751 194.717 509.731 198.207 555.286 201.53C587.903 203.691 621.353 205.333 654.106 206.467C728.873 209.006 804.001 209.79 878.858 208.007C980.986 205.655 1093 196.803 1194.98 189.583C1300.16 182.863 1405.68 172.765 1511.69 175.84C1533.68 176.731 1555.84 178.491 1577.03 182.364C1589.45 184.725 1602.25 188.034 1612.99 192.677C1602.02 188.165 1589.38 185.113 1576.8 182.845C1555.61 179.205 1533.5 177.674 1511.58 177.011C1441.07 175.107 1370.66 180.133 1300.6 184.562C1177.91 193.387 1055.07 201.908 931.718 206.29C843.788 209.58 755.131 212.305 667.096 209.487C629.603 208.367 592.193 206.155 554.956 203.243C537.316 201.768 513.593 199.71 495.931 198.296C451.178 194.969 405.833 192.621 360.728 192.705C339.833 192.869 318.841 193.433 298.051 194.675C271.718 196.159 245.686 199.001 219.668 201.88C211.058 202.813 202.148 203.779 193.486 204.521C176.018 206.08 158.086 206.948 140.431 206.598C105.098 206.043 69.946 201.259 35.9785 195.496L23.2585 193.195L16.8985 192.043L13.7185 191.464L10.5609 190.843C-13.9191 186.144 -40.484 180.269 -64.5215 174.725L-64.529 174.715Z" fill="#ECE3D8"/>
</g>
<g opacity="0.5">
<path d="M-67.0194 174.51C-25.2444 183.591 16.868 192.453 59.993 198.646C94.2755 203.616 129.773 206.668 164.956 204.82C195.848 203.196 226.126 198.725 256.958 196.527C287.596 194.147 319.178 193.494 350.041 193.816C358.748 193.97 367.928 194.124 376.643 194.343C381.308 194.502 392.131 194.866 396.571 194.997C404.063 195.239 415.598 195.865 423.113 196.149C445.073 197.171 474.083 199.061 495.901 200.709C588.076 208.572 681.068 211.969 774.091 212.38C827.266 212.623 880.471 211.759 933.533 209.487C1072.76 203.462 1217.78 189.891 1356.81 182.434C1392.17 180.521 1427.61 179.102 1463.11 178.808C1498.56 178.617 1534.4 179.312 1569.04 184.427C1586.25 187.031 1603.28 190.923 1617.62 197.493C1610.36 194.32 1602.42 191.8 1594.19 189.803C1569.36 183.825 1542.65 181.804 1516.23 180.801C1409.87 178.071 1304.06 188.249 1198.48 195.062C1084.07 203.107 968.888 208.791 853.868 212.287C743.168 216.001 631.718 214.713 522.008 204.041C509.828 202.995 494.663 201.516 482.513 200.611C421.201 195.776 358.658 193.032 296.956 196.014C261.563 197.554 226.778 201.768 191.761 205.142C185.401 205.721 178.276 206.285 171.878 206.645C134.191 209.09 95.9481 205.987 59.3631 200.256C38.1681 197.059 16.1855 192.906 -4.49951 188.594C-15.6295 186.349 -28.027 183.479 -39.0295 181.076L-42.142 180.348L-67.0269 174.501L-67.0194 174.51Z" fill="#ECE3D8"/>
</g>
<g opacity="0.43">
<path d="M-69.5091 174.305C-29.7966 183.274 10.2684 191.959 51.2184 198.404C79.1409 202.706 107.768 206.048 136.576 206.239C176.701 206.538 215.836 199.878 255.668 197.531C265.516 196.915 279.271 196.243 289.066 196.01C292.426 195.926 299.093 195.776 302.446 195.692C306.398 195.66 318.338 195.585 322.523 195.566C327.368 195.618 338.011 195.725 342.586 195.772C371.108 196.392 400.876 197.662 429.271 199.426C446.716 200.434 465.001 201.768 482.401 203.154C596.903 213.636 712.936 216.79 828.586 215.624C989.056 214.046 1147.96 198.184 1307.48 188.772C1360.7 185.51 1414.05 182.644 1467.56 182.392C1503.19 182.336 1539.21 183.181 1573.92 188.594C1591.16 191.348 1608.18 195.445 1622.3 202.31C1615.16 198.992 1607.27 196.341 1599.05 194.241C1557.44 184.049 1511.71 183.816 1467.59 183.904C1342.88 185.888 1219.37 198.212 1095.22 204.923C1015.73 209.464 935.071 213.118 855.316 215.628C757.433 218.932 658.981 218.839 561.586 211.144C486.593 204.792 411.796 196.439 335.873 196.831C309.698 196.784 282.031 197.741 256.043 199.668C242.866 200.648 229.561 201.885 216.451 203.196C190.021 205.884 163.448 208.661 136.523 208.339C106.246 208.059 76.4559 204.284 47.3259 199.43L44.1084 198.856L31.246 196.556L28.0284 195.982C16.5534 193.756 4.35085 191.357 -6.93665 188.879C-26.9466 184.632 -49.8441 179.116 -69.5241 174.3L-69.5091 174.305Z" fill="#ECE3D8"/>
</g>
<g opacity="0.36">
<path d="M-71.9923 174.1C-26.1523 184.707 20.6777 195.431 68.4377 202.006C139.523 212.193 172.92 204.629 240.99 199.477C276.608 197.041 312.72 196.933 348.48 198.184C365.73 198.721 384.825 199.729 402.053 200.732C455.558 203.672 508.545 209.706 561.915 213.103C677.618 219.987 794.318 221.013 910.38 217.019C1044.41 211.96 1177.47 199.668 1311.13 191.991C1364.62 188.813 1418.26 186.055 1472.04 185.999C1507.83 186.079 1544.06 187.063 1578.82 192.78C1587.48 194.231 1596.01 196.037 1604.16 198.361C1612.31 200.681 1620.06 203.574 1626.97 207.135C1623.47 205.399 1619.75 203.845 1615.88 202.44C1588.51 192.78 1556.57 189.994 1525.63 188.449C1489.96 186.825 1454.13 187.465 1418.45 188.715C1347 191.385 1275.83 196.401 1204.69 201.283C1089.02 209.207 972.968 215.115 856.763 218.969C740.565 223.193 623.415 222.152 508.373 210.196C501.825 209.524 488.43 208.213 481.86 207.573C428.903 202.533 375.218 198.809 321.6 198.847C285.863 198.702 250.17 200.601 214.86 203.961C189.36 206.388 160.47 209.492 134.573 209.188C109.763 209.09 85.2529 206.458 61.2529 202.804C15.9304 195.674 -28.7398 185.099 -71.9923 174.104L-71.9923 174.1Z" fill="#ECE3D8"/>
</g>
<g opacity="0.29">
<path d="M-74.4819 173.894C-32.6319 184.016 9.59317 193.872 53.0632 200.9C79.0057 205.012 105.781 208.008 132.586 207.956C172.958 207.779 212.723 201.101 253.111 199.888C279.863 198.88 307.448 198.992 334.178 200.014C345.451 200.364 360.046 201.162 371.206 201.712C380.393 202.324 392.333 202.991 401.416 203.644C431.603 205.642 477.886 209.916 508.351 212.828C615.211 222.054 723.436 223.562 831.181 222.367C858.158 222.008 885.121 221.289 912.053 220.267C1082.66 213.645 1251.74 195.664 1422.5 190.316C1458.48 189.378 1494.61 189.061 1530.51 191.114C1552.91 192.491 1575.36 194.745 1596.58 199.547C1609.26 202.422 1621.44 206.388 1631.62 211.946C1628.18 210.14 1624.5 208.521 1620.68 207.056C1593.52 196.962 1561.39 193.989 1530.35 192.281C1494.53 190.489 1458.51 190.993 1422.65 192.155C1350.83 194.633 1279.29 199.561 1207.79 204.396C1091.54 212.254 974.941 218.251 858.181 222.292C759.368 225.886 659.956 226.245 561.556 218.666C490.171 213.15 419.611 203.336 347.558 201.47C307.163 200.196 266.671 200.644 226.583 203.714C196.036 205.903 163.478 210.234 132.578 210.066C107.678 210.024 82.9507 207.424 58.9207 203.584C13.4482 196.257 -31.2219 185.216 -74.4894 173.894L-74.4819 173.894Z" fill="#ECE3D8"/>
</g>
<g opacity="0.21">
<path d="M-76.9719 173.689C-44.2269 181.874 -8.77435 190.465 24.7357 196.989C58.9207 203.649 94.5681 209.062 130.561 208.871C166.651 208.483 202.171 203.033 238.253 201.763C274.456 200.181 310.778 201.035 346.801 203.056C364.388 204.013 383.288 205.31 400.733 206.724C415.936 207.895 432.533 209.384 447.758 210.747C574.553 224.975 703.891 227.519 832.471 225.731C959.033 224.033 1084.8 213.491 1210.52 205.133C1264.46 201.637 1318.45 198.147 1372.56 195.683C1426.67 193.382 1481.18 191.744 1535.28 194.955C1562.2 196.793 1589.5 199.738 1613.96 207.265C1622.04 209.795 1629.66 212.935 1636.31 216.767C1629.55 213.029 1621.85 210.005 1613.7 207.592C1589.16 200.354 1561.93 197.685 1535.1 196.126C1499.12 194.157 1462.93 194.544 1426.88 195.617C1318.55 199.043 1210.99 208.273 1102.99 214.237C1031.57 218.325 958.336 221.839 886.681 224.625C751.441 230.431 614.678 230.641 480.998 214.961C414.473 207.629 346.681 202.099 279.031 202.79C258.863 203.014 238.396 203.835 218.341 205.212C189.218 207.177 160.043 210.849 130.583 210.985C94.1557 211.092 58.3807 205.422 24.0382 198.347C-9.47929 191.567 -44.6169 182.429 -76.9719 173.698L-76.9719 173.689Z" fill="#ECE3D8"/>
</g>
<g opacity="0.14">
<path d="M-79.4545 173.479C-50.1895 181.104 -17.212 189.252 12.608 195.659C34.928 200.303 58.1854 204.68 81.3979 207.228C84.5929 207.559 88.5528 208.054 91.4178 208.264C93.5553 208.427 99.2928 208.885 101.49 209.057L108.233 209.384C123.975 210.182 139.838 209.659 155.52 208.577C182.573 206.542 209.558 203.784 236.865 203.061C293.753 201.371 350.55 205.543 406.748 210.462C421.725 211.918 438.93 213.435 453.863 215.091C587.933 230.305 725.1 231.163 860.963 228.531C1015.37 224.649 1168.28 209.701 1322.15 201.689C1376.48 198.744 1430.98 196.327 1485.55 196.826C1520.73 197.265 1556.31 198.679 1590.31 204.708L1593.57 205.329C1594.66 205.529 1595.75 205.749 1596.83 205.977L1600.06 206.659C1602.19 207.153 1604.34 207.615 1606.45 208.166C1619.11 211.302 1631.18 215.609 1640.96 221.569C1631.02 215.754 1618.85 211.643 1606.16 208.633C1584.94 203.621 1562.34 201.353 1539.85 199.957C1467.44 195.972 1394.69 200.107 1322.47 203.873C1213.98 210.341 1105.66 218.129 996.93 223.057C943.455 225.643 887.258 228.121 833.783 229.88C724.92 233.646 615.195 232.545 507.368 221.667C453.923 216.025 399.833 209.272 345.75 206.631C296.235 203.91 245.85 203.761 196.493 207.639C169.545 209.65 142.088 212.609 114.84 211.699C112.553 211.685 110.273 211.512 107.993 211.409L101.153 211.05L94.358 210.49L90.9604 210.21L89.2579 210.07L87.5704 209.883L80.8279 209.127C58.6729 206.556 36.3754 202.202 15.1279 197.601C-15.9071 190.857 -49.4395 181.86 -79.4545 173.479V173.479Z" fill="#ECE3D8"/>
</g>
<g opacity="0.07">
<path d="M-81.9448 173.274C-51.5248 181.426 -17.7374 190.19 13.3801 196.929C39.1351 202.459 65.4826 207.373 92.5351 209.548L95.9026 209.842L99.2851 210.033C102.638 210.21 106.455 210.476 109.448 210.518C133.358 211.372 156.945 209.109 180.735 207.266C206.775 205.166 233.22 204.19 259.5 204.414C283.178 204.76 307.808 205.791 331.32 207.471C378.953 210.691 426.308 215.778 473.423 221.14C484.62 222.358 495.99 223.45 507.225 224.411C624.818 234.09 743.94 234.374 862.335 231.85C1053.97 226.777 1243.54 205.175 1435.24 200.7C1489.81 200.014 1545.82 199.5 1598.51 209.543C1607.21 211.302 1615.75 213.444 1623.77 216.193C1631.75 218.918 1639.28 222.316 1645.62 226.394C1640.85 223.403 1635.2 220.813 1629.44 218.587C1619.68 214.933 1609.09 212.212 1598.21 210.145C1563.2 203.663 1526.36 202.394 1490.03 201.983C1362.17 201.857 1235.31 213.696 1108.13 220.458C1045.08 224.066 980.258 227.253 917.025 230.034C890.325 231.14 861.533 232.358 835.02 233.24C707.423 238 578.535 235.532 452.993 219.6C426.368 216.412 398.843 213.533 371.948 211.349C335.918 208.498 299.235 206.594 262.883 206.505C244.838 206.468 226.32 206.864 208.343 207.826C175.358 209.347 142.545 213.808 109.26 212.562C108.113 212.52 106.958 212.52 105.818 212.436L98.9476 212.03L95.5126 211.825L92.1002 211.517L85.2827 210.901C84.7127 210.85 84.1426 210.803 83.5801 210.742L81.8926 210.537C24.8401 203.7 -29.3548 188.17 -81.9598 173.278L-81.9448 173.274Z" fill="#ECE3D8"/>
</g>
</g>
<defs>
<clipPath id="clip0_1166_9647">
<rect width="1440" height="504" fill="white" transform="translate(1440 504) rotate(180)"/>
</clipPath>
</defs>
</svg>
